<svg xmlns="http://www.w3.org/2000/svg" width="62.5" height="56.815" viewBox="0 0 62.5 56.815">
  <g id="Group_290" data-name="Group 290" transform="translate(1338 -1227)">
    <path id="Path_28" data-name="Path 28" d="M-439.92,61c-.359.032-.717.065-1.073.1-8.508.859-15.916,6.054-16.652,15.116-.789,9.718,4.411,21.647,13.607,25.858,11.834,5.419,30.617,3.162,38.931-7.637,3.9-5.059,5.31-11.655,5.764-17.9.467-6.406.614-14.4-1.778-20.437-1.61-4.061-5.17-7.658-9.526-7.985-3.769-.282-7.287,1.86-10.2,4.272s-5.6,5.228-9.058,6.746C-433.028,60.509-436.505,60.7-439.92,61Z" transform="translate(-1737.065 1331.91) rotate(180)" fill="#fedf6d"/>
    <g id="Group_64" data-name="Group 64" transform="translate(72.516 1390.225)">
      <path id="Path_29" data-name="Path 29" d="M-1348.016-122.552c-.116.538-.2,1.084-.353,1.611a8.726,8.726,0,0,1-3.679,5,.8.8,0,0,0-.422.768c.02,1.613,0,3.227.011,4.841a1.438,1.438,0,0,1-.84,1.476,1.421,1.421,0,0,1-1.685-.428c-1.568-1.569-3.146-3.129-4.7-4.714a1.341,1.341,0,0,0-1.06-.429c-5.63.012-11.26,0-16.89.011a9.263,9.263,0,0,1-5.995-1.99,4.484,4.484,0,0,1-.454-.4.751.751,0,0,1-.068-1.045.756.756,0,0,1,1.08-.094c.379.277.735.59,1.131.84a7.49,7.49,0,0,0,4.117,1.128c5.714-.012,11.428,0,17.142-.015a2.6,2.6,0,0,1,2.015.831c1.379,1.425,2.8,2.812,4.2,4.214.117.116.24.226.422.4.016-.219.036-.361.036-.5,0-1.4.021-2.791-.006-4.185a2.087,2.087,0,0,1,1.029-1.934,7.216,7.216,0,0,0,3.419-6.22q.069-4.209,0-8.421a7.442,7.442,0,0,0-7.515-7.374q-10.436-.009-20.873,0a7.428,7.428,0,0,0-7.494,7.434c-.022,2.79-.049,5.581.021,8.37a14.1,14.1,0,0,0,.532,2.8c.126.54-.015.951-.486,1.092a.76.76,0,0,1-.953-.526,9.168,9.168,0,0,1-.676-3.589c0-1.243,0-2.485,0-3.772a1.925,1.925,0,0,0-1.842.46c-1.221,1.318-2.518,2.567-3.8,3.825a1.389,1.389,0,0,1-2.41-.522,2.342,2.342,0,0,1-.051-.6c0-1.311-.012-2.622,0-3.933a.727.727,0,0,0-.368-.7,8.919,8.919,0,0,1-4.171-7.773c-.013-2.656-.006-5.312,0-7.967a8.98,8.98,0,0,1,9.131-9.135q10.336-.01,20.671,0a8.952,8.952,0,0,1,3.3.6.785.785,0,0,1,.557,1.063c-.166.406-.578.5-1.109.381a12.4,12.4,0,0,0-2.657-.488q-10.461-.059-20.923-.012a7.374,7.374,0,0,0-7.185,5.617,8.338,8.338,0,0,0-.242,1.942q-.04,4.008-.007,8.018a7.4,7.4,0,0,0,3.547,6.513,1.962,1.962,0,0,1,.986,1.8c-.02,1.109,0,2.219,0,3.328v.588c.2-.188.327-.293.441-.406,1.106-1.1,2.236-2.187,3.306-3.325a2.49,2.49,0,0,1,2.146-.872c.2.017.4,0,.684,0,0-.311,0-.588,0-.866a15.83,15.83,0,0,1,.349-4.353,8.95,8.95,0,0,1,8.5-6.515c5.058-.032,10.117-.01,15.175-.012h.628c.011-.21.027-.373.027-.535,0-1.059-.017-2.118.005-3.177a7.45,7.45,0,0,0-1.935-5.308c-.272-.3-.429-.674-.143-.993a1.247,1.247,0,0,1,.812-.333c.179-.008.4.217.552.385a8.935,8.935,0,0,1,2.265,6.091q0,1.639,0,3.278v.592c1.238,0,2.41.01,3.582,0a8.584,8.584,0,0,1,3.632.7,8.9,8.9,0,0,1,5.436,7c.022.13.064.257.1.385Z" fill="#fff"/>
      <path id="Path_30" data-name="Path 30" d="M-1269.491-23.6a2.7,2.7,0,0,1,1.642,2.822c-.033.872.023,1.75-.046,2.619a2.477,2.477,0,0,1-2.23,2.238,2.508,2.508,0,0,1-2.655-1.723,3.384,3.384,0,0,1-.143-.94c-.019-.823-.009-1.647-.006-2.47a2.61,2.61,0,0,1,1.589-2.529.843.843,0,0,0,.357-.521,6.983,6.983,0,0,1,5.708-5.355,6.994,6.994,0,0,1,7.949,5.173,1.106,1.106,0,0,0,.64.845,2.368,2.368,0,0,1,1.359,2.2c.027.94.034,1.883,0,2.823a2.522,2.522,0,0,1-1.615,2.349,1.091,1.091,0,0,0-.487.489,4.6,4.6,0,0,1-1.957,2.1,1.069,1.069,0,0,0-.423.446,2.482,2.482,0,0,1-2.15,1.445A2.593,2.593,0,0,1-1264.5-12.7a1.929,1.929,0,0,1,.369-2.553,2.9,2.9,0,0,1,3.783.016,5.233,5.233,0,0,1,.359.419l1.157-1.225c-.2-.137-.321-.216-.439-.3a2.394,2.394,0,0,1-1.09-1.947c-.022-1.024-.038-2.051,0-3.074a2.475,2.475,0,0,1,1.572-2.215c-.123-2.127-2.49-4.251-4.926-4.424A5.463,5.463,0,0,0-1269.491-23.6Zm10.649,3.776c0,.437-.007.874,0,1.31a1.006,1.006,0,0,0,.973,1.067.977.977,0,0,0,.987-1q.04-1.385,0-2.771a.944.944,0,0,0-1-.977.963.963,0,0,0-.964,1.01C-1258.852-20.729-1258.842-20.275-1258.842-19.822Zm-10.569.023h0q0-.655,0-1.31c0-.034,0-.067,0-.1a.962.962,0,0,0-.989-.983.933.933,0,0,0-.959.955q-.032,1.41,0,2.821a.964.964,0,0,0,.956.971.982.982,0,0,0,.989-.994C-1269.4-18.891-1269.411-19.345-1269.411-19.8Zm7.166,5.395c-.569,0-1.047.306-1.031.664.016.336.491.633,1.019.636.561,0,1.043-.312,1.028-.673C-1261.245-14.122-1261.7-14.4-1262.246-14.4Z" transform="translate(-109.649 -107.445)" fill="#fff"/>
      <path id="Path_31" data-name="Path 31" d="M-1129.169-7.025c-.975,0-1.949,0-2.924,0-.587,0-.933-.281-.95-.746s.345-.785.955-.786q2.9-.006,5.8,0c.592,0,.918.284.917.765s-.337.762-.922.766C-1127.253-7.021-1128.211-7.025-1129.169-7.025Z" transform="translate(-230.697 -125.609)" fill="#fff"/>
      <path id="Path_32" data-name="Path 32" d="M-1129.975,18.556c-.737,0-1.475.007-2.212,0a.776.776,0,0,1-.856-.778.772.772,0,0,1,.84-.747q2.287-.013,4.575,0a.752.752,0,0,1,.846.783.741.741,0,0,1-.83.742C-1128.4,18.564-1129.188,18.556-1129.975,18.556Z" transform="translate(-230.697 -147.747)" fill="#fff"/>
      <path id="Path_33" data-name="Path 33" d="M-1323.67-86.12A1.122,1.122,0,0,1-1324.835-85a1.137,1.137,0,0,1-1.12-1.124,1.135,1.135,0,0,1,1.147-1.147A1.123,1.123,0,0,1-1323.67-86.12Z" transform="translate(-63.769 -57.503)" fill="#fff"/>
      <path id="Path_34" data-name="Path 34" d="M-1350.589-87.272a1.135,1.135,0,0,1,1.132,1.162A1.131,1.131,0,0,1-1350.641-85a1.118,1.118,0,0,1-1.1-1.135A1.122,1.122,0,0,1-1350.589-87.272Z" transform="translate(-41.457 -57.5)" fill="#fff"/>
      <path id="Path_35" data-name="Path 35" d="M-1297.894-86.142A1.113,1.113,0,0,1-1299.03-85a1.11,1.11,0,0,1-1.134-1.1,1.113,1.113,0,0,1,1.109-1.172A1.116,1.116,0,0,1-1297.894-86.142Z" transform="translate(-86.086 -57.507)" fill="#fff"/>
    </g>
  </g>
</svg>
