<svg xmlns="http://www.w3.org/2000/svg" width="755.607" height="650.287" viewBox="0 0 755.607 650.287">
  <g id="Group_219" data-name="Group 219" transform="translate(-60.755 -71.519)">
    <path id="Path_111" data-name="Path 111" d="M106.652,424.4s39.289-63.576-13.223-122.666-27.723-131.2,25.08-140.125,136.993,11.287,170.2-34.2,89.63-70.757,148.855-46.5,51.572,70.86,80.162,85.972,43.187,24.445,99.066,6.131,131.688,14.488,118.548,118.374S767.69,433.76,767.69,433.76s88.951,84.359,17.184,170.516-160.738,2.265-220.366,31.575-62.451,95.016-172.733,84.907-98.92-112.679-171.821-116.482S45.026,542.48,106.652,424.4Z" transform="translate(3.509 0)" fill="#fc611f" opacity="0.09"/>
    <g id="Group_218" data-name="Group 218" transform="translate(60.755 117.266)">
      <g id="Group_152" data-name="Group 152" transform="translate(602.667 192.947)">
        <g id="Group_142" data-name="Group 142" transform="translate(0.559)">
          <path id="Path_112" data-name="Path 112" d="M366.566,301.237c13.5-17.428,26.367-35.326,38.969-53.409,12.221-17.536,26.444-35.045,35.059-54.721.337-.766-.794-1.433-1.13-.663-8.294,18.94-21.864,35.754-33.61,52.641-13.005,18.7-26.264,37.217-40.214,55.224-.511.659.41,1.594.926.928Z" transform="translate(-365.491 -192.101)" fill="#184f78"/>
        </g>
        <g id="Group_143" data-name="Group 143" transform="translate(74.454 1.103)">
          <path id="Path_113" data-name="Path 113" d="M402.831,193.481c3.555,21.3,8.926,42.338,13.655,63.4,4.763,21.206,9.632,42.389,15.587,63.3a.656.656,0,0,0,1.265-.348c-5.956-20.91-10.826-42.092-15.589-63.3-4.729-21.062-10.1-42.1-13.653-63.4-.139-.829-1.4-.479-1.265.348Z" transform="translate(-402.821 -192.659)" fill="#184f78"/>
        </g>
        <g id="Group_144" data-name="Group 144" transform="translate(0 109.294)">
          <path id="Path_114" data-name="Path 114" d="M365.336,248.254c4.705,6.251,12.754,9.569,19.724,12.647,8.365,3.694,17.3,6.972,26.375,8.338s18.556,1.107,27.717,1.356c9.995.273,19.86.158,29.6-2.324a.655.655,0,0,0-.348-1.263c-16.4,4.179-35.233,2.827-51.99,1.461-8.363-.683-16.386-3.086-24.2-6.047-8.371-3.169-20.165-7.419-25.743-14.828-.5-.667-1.639-.014-1.13.661Z" transform="translate(-365.208 -247.314)" fill="#184f78"/>
        </g>
        <g id="Group_145" data-name="Group 145" transform="translate(9.276 103.222)">
          <path id="Path_115" data-name="Path 115" d="M370.527,245.738a35.7,35.7,0,0,0,5.285-.178c.831-.089.839-1.4,0-1.308a35.972,35.972,0,0,1-5.285.176c-.843-.036-.843,1.275,0,1.31Z" transform="translate(-369.895 -244.247)" fill="#184f78"/>
        </g>
        <g id="Group_146" data-name="Group 146" transform="translate(23.916 102.836)">
          <path id="Path_116" data-name="Path 116" d="M377.914,245.366l8.979,1.122c.835.1.827-1.208,0-1.31l-8.979-1.12c-.835-.1-.827,1.206,0,1.308Z" transform="translate(-377.29 -244.052)" fill="#184f78"/>
        </g>
        <g id="Group_147" data-name="Group 147" transform="translate(42.405 104.053)">
          <path id="Path_117" data-name="Path 117" d="M387.1,245.944l8.607,1.728c.823.166,1.176-1.1.348-1.263l-8.607-1.728c-.823-.166-1.176,1.1-.348,1.263Z" transform="translate(-386.631 -244.666)" fill="#184f78"/>
        </g>
        <g id="Group_148" data-name="Group 148" transform="translate(61.818 107.062)">
          <path id="Path_118" data-name="Path 118" d="M396.876,247.5a46.3,46.3,0,0,0,6.332,1.983c.82.194,1.17-1.069.348-1.265a46.023,46.023,0,0,1-6.332-1.982c-.784-.309-1.124.958-.348,1.263Z" transform="translate(-396.437 -246.187)" fill="#184f78"/>
        </g>
        <g id="Group_149" data-name="Group 149" transform="translate(77.786 112.07)">
          <path id="Path_119" data-name="Path 119" d="M404.848,249.909q2.589,1.119,5.271,1.989c.806.259,1.15-1.006.348-1.263-1.683-.54-3.337-1.156-4.959-1.859-.766-.331-1.435.8-.661,1.132Z" transform="translate(-404.504 -248.717)" fill="#184f78"/>
        </g>
        <g id="Group_150" data-name="Group 150" transform="translate(91.902 117.34)">
          <path id="Path_120" data-name="Path 120" d="M411.948,252.608a51.461,51.461,0,0,0,5.315,2.769c.762.342,1.429-.786.661-1.132a51.031,51.031,0,0,1-5.313-2.769.657.657,0,0,0-.663,1.132Z" transform="translate(-411.635 -251.379)" fill="#184f78"/>
        </g>
        <g id="Group_151" data-name="Group 151" transform="translate(50.474 118.496)">
          <path id="Path_121" data-name="Path 121" d="M391.179,253.242c9.167,1.894,18.59,1.859,27.723,3.957,8.5,1.952,16.671,4.856,25.347,5.988.835.109.827-1.2,0-1.31-9.335-1.219-18.11-4.569-27.3-6.449-8.4-1.718-17.026-1.714-25.425-3.448-.824-.17-1.176,1.093-.348,1.263Z" transform="translate(-390.707 -251.963)" fill="#184f78"/>
        </g>
      </g>
      <path id="Path_122" data-name="Path 122" d="M295.886,304.815a5.315,5.315,0,0,1-5.164-4.5,96.339,96.339,0,0,0-189.884-3.551,5.313,5.313,0,0,1-5.331,4.3l-21.974-.41a5.344,5.344,0,0,0-5.444,5.244l-.368,19.651A5.348,5.348,0,0,0,72.966,331l244.326,4.569a5.345,5.345,0,0,0,5.446-5.244l.368-19.651a5.348,5.348,0,0,0-5.246-5.446Zm-99.2-54.68a64.789,64.789,0,0,1,61.024,47.059A5.359,5.359,0,0,1,252.452,304L138.943,301.88a5.358,5.358,0,0,1-5-7A64.788,64.788,0,0,1,196.685,250.136Z" transform="translate(-53.933 26.656)" fill="#184f78" opacity="0.12"/>
      <g id="Group_153" data-name="Group 153" transform="translate(180.932 8.811)">
        <path id="Path_123" data-name="Path 123" d="M152.176,99.86a1579.048,1579.048,0,0,1,28.635,176.172c.1.9,1.489.687,1.394-.214A1579.039,1579.039,0,0,0,153.57,99.646c-.194-.881-1.59-.673-1.394.214Z" transform="translate(-152.158 -99.08)" fill="#184f78"/>
      </g>
      <g id="Group_154" data-name="Group 154" transform="translate(87.928 58.698)">
        <path id="Path_124" data-name="Path 124" d="M105.966,181.563c88.114-11.9,177.11-24.126,260.665-55.943.847-.323.271-1.609-.576-1.287-83.438,31.771-172.316,43.951-260.3,55.836a.705.705,0,0,0,.214,1.394Z" transform="translate(-105.174 -124.282)" fill="#184f78"/>
      </g>
      <g id="Group_155" data-name="Group 155" transform="translate(188.336 2.216)">
        <path id="Path_125" data-name="Path 125" d="M156.05,96.9q1.808,2.352,3.617,4.7c.554.719,1.649-.168,1.095-.889l-3.617-4.7c-.552-.719-1.649.168-1.095.887Z" transform="translate(-155.898 -95.749)" fill="#184f78"/>
      </g>
      <g id="Group_156" data-name="Group 156" transform="translate(190.214)">
        <path id="Path_126" data-name="Path 126" d="M159.27,95.419a19.355,19.355,0,0,1-2.322,12.77c-.445.78.687,1.623,1.136.835A20.929,20.929,0,0,0,160.664,95.2a.705.705,0,0,0-1.394.214Z" transform="translate(-156.847 -94.629)" fill="#184f78"/>
      </g>
      <g id="Group_157" data-name="Group 157" transform="translate(340.107 72.311)">
        <path id="Path_127" data-name="Path 127" d="M232.826,132.46A20.887,20.887,0,0,0,242.037,137c.887.194,1.041-1.207.164-1.4a19.469,19.469,0,0,1-8.54-4.274c-.693-.59-1.522.55-.835,1.136Z" transform="translate(-232.569 -131.159)" fill="#184f78"/>
      </g>
      <g id="Group_158" data-name="Group 158" transform="translate(341.817 71.233)">
        <path id="Path_128" data-name="Path 128" d="M238.485,131.043a31.733,31.733,0,0,1-4.893,8.274c-.576.7.564,1.536,1.136.833a32.958,32.958,0,0,0,5.067-8.589.705.705,0,0,0-1.31-.519Z" transform="translate(-233.433 -130.614)" fill="#184f78"/>
      </g>
      <g id="Group_159" data-name="Group 159" transform="translate(341.448 54.697)">
        <path id="Path_129" data-name="Path 129" d="M233.687,123.615a29.979,29.979,0,0,1,7.524,3.832c-.049-.329-.1-.657-.15-.986a14.53,14.53,0,0,0-2.736,5.347c-.24.867,1.071,1.392,1.31.519a13.613,13.613,0,0,1,2.561-5.03.715.715,0,0,0-.15-.986,31.344,31.344,0,0,0-7.841-4.007c-.857-.3-1.378,1.013-.519,1.31Z" transform="translate(-233.247 -122.261)" fill="#184f78"/>
      </g>
      <g id="Group_160" data-name="Group 160" transform="translate(178.586 8.077)">
        <path id="Path_130" data-name="Path 130" d="M152.395,104.79q.288-1.179.578-2.358c.111-.451.283-.952.346-1.413l.115-.471c-.226-.412-.212-.5.044-.259.529.1,1.342,1.019,1.754,1.36.695.576,1.362,1.18,2.011,1.807s1.748-.257,1.095-.889c-.895-.865-1.815-1.7-2.789-2.474-.6-.481-1.514-1.51-2.387-1.37-.719.115-.917.829-1.069,1.425-.382,1.489-.732,2.985-1.1,4.478-.216.881,1.186,1.035,1.4.164Z" transform="translate(-150.973 -98.709)" fill="#184f78"/>
      </g>
      <g id="Group_161" data-name="Group 161" transform="translate(157.305 33.568)">
        <path id="Path_131" data-name="Path 131" d="M141.638,199.859c3.341-16.123,6.7-32.284,11.677-48a194.948,194.948,0,0,1,8.391-22.1,97.961,97.961,0,0,1,6.194-12.132c1.987-3.112,3.365-5.525,8.314-4.185,2.116.574,4.355,2.6,6.051,4.01,22.479,18.732,34.849,46.572,56.358,66.294.669.614,1.5-.529.835-1.136-13-11.921-22.723-26.628-33.248-40.651a181.923,181.923,0,0,0-16.341-19.387c-3.979-3.993-9.8-10.911-15.915-10.98-5.63-.063-7.922,6.342-10.115,10.563a177.064,177.064,0,0,0-10.614,25.433c-5.7,17-9.355,34.586-12.988,52.112-.184.889,1.217,1.045,1.4.164Z" transform="translate(-140.222 -111.587)" fill="#184f78"/>
      </g>
      <g id="Group_182" data-name="Group 182" transform="translate(434.043 53.197)">
        <g id="Group_162" data-name="Group 162">
          <path id="Path_132" data-name="Path 132" d="M281.493,158.068q14.039-17.222,26.808-35.415c-.473-.139-.948-.279-1.421-.42A123.649,123.649,0,0,1,304.3,145.1c-1.328,5.9-2.577,11.709-1.4,17.746.19.972,1.685.6,1.495-.368-1.378-7.059.824-13.8,2.2-20.664a122.093,122.093,0,0,0,1.825-19.556.777.777,0,0,0-1.423-.42q-12.765,18.187-26.808,35.415c-.624.766.691,1.57,1.306.812Z" transform="translate(-280.023 -121.503)" fill="#fc611f"/>
        </g>
        <g id="Group_163" data-name="Group 163" transform="translate(9.362 21.336)">
          <path id="Path_133" data-name="Path 133" d="M285.3,133.769a156.118,156.118,0,0,1,15.412,3.24c.954.251,1.394-1.221.436-1.475a156.705,156.705,0,0,0-15.412-3.242c-.964-.152-1.413,1.32-.436,1.477Z" transform="translate(-284.753 -132.281)" fill="#fc611f"/>
        </g>
        <g id="Group_164" data-name="Group 164" transform="translate(35.49 22.65)">
          <path id="Path_134" data-name="Path 134" d="M298.487,134.451q7.477,2.079,14.858,4.472c.942.3,1.376-1.17.435-1.475q-7.381-2.4-14.858-4.472a.769.769,0,0,0-.436,1.475Z" transform="translate(-297.952 -132.945)" fill="#fc611f"/>
        </g>
        <g id="Group_165" data-name="Group 165" transform="translate(34.902 30.482)">
          <path id="Path_135" data-name="Path 135" d="M298.189,138.409l16.929,4.749a.769.769,0,0,0,.435-1.475q-8.465-2.375-16.929-4.749a.769.769,0,0,0-.436,1.475Z" transform="translate(-297.655 -136.902)" fill="#fc611f"/>
        </g>
        <g id="Group_166" data-name="Group 166" transform="translate(68.365 16.086)">
          <path id="Path_136" data-name="Path 136" d="M314.612,137.28q3.652,9.757,7.306,19.512c.206.554,1.061.873,1.4.224,3.8-7.292,7.568-14.6,11.39-21.876,1.386-2.639,3.015-4.545,6.332-3.771,1.981.461,3.941,1.085,5.895,1.649,3.923,1.13,7.829,2.322,11.731,3.518,15.325,4.7,30.7,8.987,46.312,12.615,31.268,7.267,63,13.3,92.8,25.589.915.376,1.344-1.1.437-1.477-25.084-10.337-51.578-16.283-77.965-22.212-13.108-2.946-26.217-5.907-39.174-9.462-13.029-3.575-25.807-8.029-38.866-11.495-5.265-1.4-6.807.382-9.169,4.917L322.011,156.2q.7.113,1.4.222-3.652-9.754-7.3-19.512c-.342-.917-1.841-.56-1.494.368Z" transform="translate(-314.56 -129.629)" fill="#fc611f"/>
        </g>
        <g id="Group_167" data-name="Group 167" transform="translate(88.026 25.887)">
          <path id="Path_137" data-name="Path 137" d="M331.084,140.045q.024-3.563,4.725.307-.371.9-.738,1.8a11.227,11.227,0,0,1-3.589,3.579c-2.1,1.469-4.4,2.682-6.608,3.973-.517.3-.548,1.295.15,1.413,3.937.675,6.047,4.622,10.327,4.046.978-.131.6-1.623-.368-1.493-3.615.487-6.125-3.446-9.523-4.028l.15,1.413c4.5-2.631,12.853-6.216,11.845-12.8-.281-1.835-1.712-3.868-3.789-3.67-2.429.23-3.731,2.944-4.058,5.016-.152.964,1.32,1.413,1.475.435Z" transform="translate(-324.492 -134.58)" fill="#fc611f"/>
        </g>
        <g id="Group_168" data-name="Group 168" transform="translate(104.522 30.066)">
          <path id="Path_138" data-name="Path 138" d="M342.423,136.9c-1.534,1.443-6.93,4.634-5.5,7.36.685,1.3,2.68,1.306,3.678,2.168,2.759,2.377.427,5.329-2.12,6.231a14.127,14.127,0,0,1-4.9.424.77.77,0,0,0-.028,1.538c3.8.061,8.8-.445,9.745-4.953a4.131,4.131,0,0,0-1.051-3.9,16.379,16.379,0,0,0-1.787-1.13,1.752,1.752,0,0,1-1.019-1.061q-1.514-.793-.344-1.435c.495-1.308,3.363-3.167,4.381-4.125a.77.77,0,0,0-1.055-1.12Z" transform="translate(-332.826 -136.691)" fill="#fc611f"/>
        </g>
        <g id="Group_169" data-name="Group 169" transform="translate(113.575 29.937)">
          <path id="Path_139" data-name="Path 139" d="M337.926,138.14a54.83,54.83,0,0,0,8.7,1.966c.978.139,1-1.4.03-1.538a52.2,52.2,0,0,1-8.3-1.9.769.769,0,0,0-.435,1.475Z" transform="translate(-337.399 -136.626)" fill="#fc611f"/>
        </g>
        <g id="Group_170" data-name="Group 170" transform="translate(129.544 47.056)">
          <path id="Path_140" data-name="Path 140" d="M346.007,146.772q6.939,1.6,13.983,2.579c.978.137,1-1.4.028-1.538q-6.844-.956-13.575-2.516c-.96-.222-1.4,1.251-.435,1.475Z" transform="translate(-345.466 -145.275)" fill="#fc611f"/>
        </g>
        <g id="Group_171" data-name="Group 171" transform="translate(135.562 44.896)">
          <path id="Path_141" data-name="Path 141" d="M351.881,144.715q-1.669,5.653-3.339,11.307a.769.769,0,0,0,1.475.435l3.339-11.307a.769.769,0,0,0-1.475-.436Z" transform="translate(-348.506 -144.183)" fill="#fc611f"/>
        </g>
        <g id="Group_172" data-name="Group 172" transform="translate(155.62 43.136)">
          <path id="Path_142" data-name="Path 142" d="M364.475,143.826q-2.9,9.819-5.8,19.639a.769.769,0,0,0,1.475.435l5.8-19.639a.77.77,0,0,0-1.477-.436Z" transform="translate(-358.639 -143.294)" fill="#fc611f"/>
        </g>
        <g id="Group_173" data-name="Group 173" transform="translate(171.249 46.716)">
          <path id="Path_143" data-name="Path 143" d="M375.034,145.57c-4.266-.03-7.288,3.745-8.193,7.651-.695,3-.406,9.4,2.975,11.026,3.654,1.754,7.831-5.889,8.834-8.31,1.576-3.809.956-8.128-2.4-10.681-.788-.6-1.593.713-.812,1.306,3.155,2.4,2.979,6.552,1.35,9.767-1.1,2.172-4.387,8.359-7.431,5.044-3.884-4.23-.16-14.306,5.65-14.264a.77.77,0,0,0,.028-1.538Z" transform="translate(-366.534 -145.103)" fill="#fc611f"/>
        </g>
        <g id="Group_174" data-name="Group 174" transform="translate(188.423 62.404)">
          <path id="Path_144" data-name="Path 144" d="M375.742,154.538a.769.769,0,0,0,.435-1.475.769.769,0,0,0-.435,1.475Z" transform="translate(-375.21 -153.028)" fill="#fc611f"/>
        </g>
        <g id="Group_175" data-name="Group 175" transform="translate(198.447 53.998)">
          <path id="Path_145" data-name="Path 145" d="M380.3,156.76q1.609,6.806,3.217,13.611a.777.777,0,0,0,1.4.222q2.539-5.223,5.079-10.444c2.049-4.21,3.385-10.153,9.327-9.513,3.575.384,7.461,2.189,10.913,3.213l11.151,3.3a.769.769,0,0,0,.436-1.475l-14.634-4.335c-3.209-.948-7.894-3.367-11.341-2.286-2.829.889-4.066,3.943-5.252,6.366-2.342,4.781-4.658,9.573-6.986,14.361l1.4.222q-1.606-6.805-3.215-13.611a.77.77,0,0,0-1.494.368Z" transform="translate(-380.274 -148.781)" fill="#fc611f"/>
        </g>
        <g id="Group_176" data-name="Group 176" transform="translate(213.665 62.86)">
          <path id="Path_146" data-name="Path 146" d="M398.826,153.392c-2.183,1.5-4.474,2.926-6.582,4.531-.724.552-1.469.907-1.312,1.924.111.713.715,1.011,1.207,1.455,1.025.92,3.165,2.981,2.649,4.693-.663,2.191-4.288,1.291-5.845.98-.964-.19-1.407,1.283-.435,1.477,3.139.622,8.348,1.269,7.738-3.339-.255-1.934-1.342-2.961-2.4-4.45-.164-.23-.845-.422-.889-.667-.17-.938,1.457-1.706,2.051-2.116l4.557-3.136c.808-.556.081-1.914-.734-1.352Z" transform="translate(-387.962 -153.258)" fill="#fc611f"/>
        </g>
        <g id="Group_177" data-name="Group 177" transform="translate(223.808 63.161)">
          <path id="Path_147" data-name="Path 147" d="M393.8,154.958q4.038.591,8.076,1.186c.974.143,1-1.4.028-1.538q-4.038-.594-8.074-1.186c-.976-.143-1,1.4-.03,1.538Z" transform="translate(-393.086 -153.41)" fill="#fc611f"/>
        </g>
        <g id="Group_178" data-name="Group 178" transform="translate(67.23 47.648)">
          <path id="Path_148" data-name="Path 148" d="M314.526,147.073C371.3,160.694,425.952,182.557,483.7,192.182c.964.16,1.411-1.312.435-1.475-57.748-9.626-112.4-31.488-169.174-45.109-.958-.23-1.4,1.245-.435,1.475Z" transform="translate(-313.987 -145.574)" fill="#fc611f"/>
        </g>
        <g id="Group_179" data-name="Group 179" transform="translate(141.671 78.495)">
          <path id="Path_149" data-name="Path 149" d="M362.518,161.272q-3.9,2.369-7.8,4.741c-1.071.649-2.831,1.247-3.1,2.617a.8.8,0,0,0,.331.871c2.654,1.617,9.684,2.425,11.539-.774a.77.77,0,0,0-1.307-.814,13.015,13.015,0,0,0-2.631,11.5.77.77,0,0,0,1.495-.368,11.573,11.573,0,0,1,2.443-10.323l-1.307-.814c-1,1.73-4.319,1.237-5.917,1.069-2.023-.214-2.564-.2-.81-1.619,2.3-1.859,5.279-3.207,7.8-4.739.843-.513.113-1.867-.734-1.352Z" transform="translate(-351.592 -161.157)" fill="#fc611f"/>
        </g>
        <g id="Group_180" data-name="Group 180" transform="translate(247.765 92.681)">
          <path id="Path_150" data-name="Path 150" d="M414,168.685c-3.892-1.892-10.768,4.05-8.284,8.11,1.138,1.861,3.569,2.156,5.448,1.4,2.967-1.2,4.8-4.268,5.537-7.231l-1.506-.232a13.547,13.547,0,0,0,2.8,9.88c.6.79,1.712-.273,1.12-1.053a12.056,12.056,0,0,1-2.379-8.8c.093-.863-1.3-1.067-1.506-.232-.724,2.9-2.973,6.893-6.471,6.295-4.581-.782,1.035-8.486,4.432-6.831.883.428,1.7-.875.814-1.309Z" transform="translate(-405.188 -168.323)" fill="#fc611f"/>
        </g>
        <g id="Group_181" data-name="Group 181" transform="translate(266.714 88.526)">
          <path id="Path_151" data-name="Path 151" d="M416.2,168.566c1.423-2.116,4.131.344,2.326,2.088-.861.831-1.894,1.271-2.559,2.316a.775.775,0,0,0,.435,1.144,9.453,9.453,0,0,1,3.811,1.69c.8.586,1.605-.724.812-1.306a10.5,10.5,0,0,0-4.187-1.859l.436,1.144c.77-1.213,2.308-1.631,3.048-2.888a3.236,3.236,0,0,0,.016-3.09,3.161,3.161,0,0,0-5.444-.053c-.554.823.754,1.633,1.307.814Z" transform="translate(-414.761 -166.224)" fill="#fc611f"/>
        </g>
      </g>
      <path id="Path_152" data-name="Path 152" d="M366.112,285.508l-213,92.55a5.755,5.755,0,0,0,2.037,11.028l258.2,11.459a5.755,5.755,0,0,0,5.533-8.043L373.684,288.493A5.754,5.754,0,0,0,366.112,285.508Zm.776,82.417-85.1-7.7c-2.009-.182-2.674-3.193-.881-3.987l68.255-30.275a1.99,1.99,0,0,1,2.546,1.176l16.846,37.979A1.874,1.874,0,0,1,366.888,367.924Z" transform="translate(26.311 91.869)" fill="#184f78" opacity="0.12"/>
      <g id="Group_184" data-name="Group 184" transform="translate(234.388 160.76)">
        <g id="Group_183" data-name="Group 183">
          <rect id="Rectangle_46" data-name="Rectangle 46" width="260.766" height="39.502" rx="2.713" transform="translate(29.796 79.135)" fill="#184f78"/>
          <rect id="Rectangle_47" data-name="Rectangle 47" width="260.766" height="39.502" rx="2.713" transform="translate(43.13 39.633)" fill="#fc611f"/>
          <rect id="Rectangle_48" data-name="Rectangle 48" width="260.766" height="39.502" rx="2.713" fill="#16b6c6"/>
          <rect id="Rectangle_49" data-name="Rectangle 49" width="26.855" height="39.502" transform="translate(37.08)" fill="#118995"/>
          <rect id="Rectangle_50" data-name="Rectangle 50" width="26.855" height="39.502" transform="translate(88.301 39.633)" fill="#fff" opacity="0.3"/>
          <rect id="Rectangle_51" data-name="Rectangle 51" width="26.854" height="39.502" transform="translate(62.81 79.135)" fill="#124768"/>
          <path id="Path_153" data-name="Path 153" d="M433.445,195.863H221.775L441.32,215.614V203.735A7.874,7.874,0,0,0,433.445,195.863Z" transform="translate(-137.423 -156.23)" fill="#ea541f"/>
          <path id="Path_154" data-name="Path 154" d="M426.71,215.819H215.038l219.545,19.749V223.691A7.872,7.872,0,0,0,426.71,215.819Z" transform="translate(-144.022 -136.683)" fill="#124768"/>
        </g>
        <path id="Path_155" data-name="Path 155" d="M197.246,232.112l-3.031,57.53,234.333-50.281" transform="translate(-164.419 -120.724)" fill="#184f78" opacity="0.12"/>
      </g>
      <path id="Path_156" data-name="Path 156" d="M343.734,267.59,149.656,395.142a5.755,5.755,0,0,0,3.892,10.517l256.362-32.783a5.755,5.755,0,0,0,4.08-8.868L351.7,269.237A5.755,5.755,0,0,0,343.734,267.59Zm14.832,81.075L273.4,355.6c-2.009.164-3.179-2.69-1.548-3.779l62.085-41.482a1.993,1.993,0,0,1,2.71.727l23.081,34.544A1.874,1.874,0,0,1,358.566,348.665Z" transform="translate(23.765 73.86)" fill="#fdc00f"/>
      <g id="Group_185" data-name="Group 185" transform="translate(433.111 206.445)">
        <rect id="Rectangle_52" data-name="Rectangle 52" width="243.674" height="32.009" rx="2.298" transform="matrix(0.866, -0.5, 0.5, 0.866, 3.93, 185.876)" fill="#184f78" opacity="0.12"/>
        <rect id="Rectangle_53" data-name="Rectangle 53" width="243.674" height="32.009" rx="2.298" transform="translate(0 182.344) rotate(-48.444)" fill="#16b6c6"/>
      </g>
      <g id="Group_186" data-name="Group 186" transform="translate(489.399 309.636)">
        <path id="Rectangle_54" data-name="Rectangle 54" d="M3.02,0H152.169a3.02,3.02,0,0,1,3.02,3.02V165.031a3.019,3.019,0,0,1-3.019,3.019H3.02A3.02,3.02,0,0,1,0,165.031V3.02A3.02,3.02,0,0,1,3.02,0Z" transform="matrix(0.915, 0.404, -0.404, 0.915, 67.889, 0)" fill="#134768"/>
        <path id="Rectangle_55" data-name="Rectangle 55" d="M3.02,0h144a3.02,3.02,0,0,1,3.02,3.02v156.7a3.019,3.019,0,0,1-3.019,3.019H3.02A3.02,3.02,0,0,1,0,159.721V3.02A3.02,3.02,0,0,1,3.02,0Z" transform="matrix(0.915, 0.404, -0.404, 0.915, 67.889, 0)" fill="#25668e"/>
        <path id="Path_157" data-name="Path 157" d="M388.382,372.509c27.454,17.558,57.061,20.161,78.353,18.9l33.216-75.217a5.978,5.978,0,0,0-3.052-7.882l-126.32-55.784a5.978,5.978,0,0,0-7.882,3.052L318.979,354.57C331.717,351.821,355.628,351.557,388.382,372.509Z" transform="translate(-297.223 -250.108)" fill="#184f78"/>
        <rect id="Rectangle_56" data-name="Rectangle 56" width="126.66" height="23.189" transform="matrix(0.915, 0.404, -0.404, 0.915, 72.68, 18.092)" fill="#25668e"/>
        <rect id="Rectangle_57" data-name="Rectangle 57" width="21.63" height="20.266" rx="0.415" transform="translate(49.353 59.419) rotate(23.827)" fill="#16b6c6"/>
        <rect id="Rectangle_58" data-name="Rectangle 58" width="21.63" height="20.266" rx="0.415" transform="matrix(0.915, 0.404, -0.404, 0.915, 75.496, 70.964)" fill="#16b6c6"/>
        <rect id="Rectangle_59" data-name="Rectangle 59" width="21.63" height="20.266" rx="0.415" transform="matrix(0.915, 0.404, -0.404, 0.915, 101.64, 82.51)" fill="#16b6c6"/>
        <rect id="Rectangle_60" data-name="Rectangle 60" width="21.63" height="20.266" rx="0.415" transform="translate(127.784 94.055) rotate(23.827)" fill="#16b6c6"/>
        <rect id="Rectangle_61" data-name="Rectangle 61" width="21.63" height="20.266" rx="0.415" transform="translate(153.928 105.601) rotate(23.827)" fill="#16b6c6"/>
        <rect id="Rectangle_62" data-name="Rectangle 62" width="21.63" height="20.266" rx="0.415" transform="matrix(0.915, 0.404, -0.404, 0.915, 35.171, 91.532)" fill="#16b6c6"/>
        <rect id="Rectangle_63" data-name="Rectangle 63" width="21.63" height="20.266" rx="0.415" transform="translate(61.314 103.078) rotate(23.827)" fill="#16b6c6"/>
        <rect id="Rectangle_64" data-name="Rectangle 64" width="21.63" height="20.266" rx="0.415" transform="translate(87.458 114.624) rotate(23.827)" fill="#16b6c6"/>
        <rect id="Rectangle_65" data-name="Rectangle 65" width="21.63" height="20.266" rx="0.415" transform="matrix(0.915, 0.404, -0.404, 0.915, 113.602, 126.169)" fill="#16b6c6"/>
        <rect id="Rectangle_66" data-name="Rectangle 66" width="21.63" height="20.266" rx="0.415" transform="matrix(0.915, 0.404, -0.404, 0.915, 139.746, 137.715)" fill="#16b6c6"/>
        <rect id="Rectangle_67" data-name="Rectangle 67" width="21.63" height="20.266" rx="0.415" transform="matrix(0.915, 0.404, -0.404, 0.915, 73.736, 145.696)" fill="#16b6c6"/>
        <rect id="Rectangle_68" data-name="Rectangle 68" width="45.987" height="20.266" rx="0.415" transform="matrix(0.915, 0.404, -0.404, 0.915, 20.943, 122.382)" fill="#fdc00f"/>
        <rect id="Rectangle_69" data-name="Rectangle 69" width="21.63" height="20.266" rx="0.415" transform="translate(99.88 157.242) rotate(23.827)" fill="#16b6c6"/>
        <rect id="Rectangle_70" data-name="Rectangle 70" width="21.63" height="20.266" rx="0.415" transform="translate(126.024 168.787) rotate(23.827)" fill="#16b6c6"/>
      </g>
      <path id="Path_158" data-name="Path 158" d="M276.681,248.057a5.313,5.313,0,0,1-6.412-2.405A96.339,96.339,0,0,0,91.137,308.738a5.314,5.314,0,0,1-3.49,5.893l-20.729,7.3a5.343,5.343,0,0,0-3.266,6.817l6.528,18.538A5.345,5.345,0,0,0,77,350.553L307.49,269.378a5.345,5.345,0,0,0,3.266-6.817l-6.528-18.538a5.347,5.347,0,0,0-6.817-3.266ZM164.62,231.528a64.79,64.79,0,0,1,73.63,22.745,5.358,5.358,0,0,1-2.546,8.215L128.622,300.2a5.359,5.359,0,0,1-7.13-4.81A64.789,64.789,0,0,1,164.62,231.528Z" transform="translate(-58.217 4.839)" fill="#fc611f"/>
      <g id="Group_213" data-name="Group 213" transform="translate(0 384.764)">
        <g id="Group_187" data-name="Group 187" transform="translate(3.991 43.242)">
          <path id="Path_159" data-name="Path 159" d="M62.775,311.4c.845,7.178,1.811,14.682,4,21.6,1.57,4.965,5.107,8.557,10.559,8.34.631-.024.469-.994-.154-.968-7.12.281-9.284-6.241-10.555-11.984a172.47,172.47,0,0,1-2.876-17.141c-.073-.627-1.043-.471-.97.156Z" transform="translate(-62.771 -310.848)" fill="#184f78"/>
        </g>
        <g id="Group_188" data-name="Group 188" transform="translate(0 54.863)">
          <path id="Path_160" data-name="Path 160" d="M61.177,318.364A54.612,54.612,0,0,0,73,317.7a.491.491,0,0,0-.154-.97,53.323,53.323,0,0,1-11.56.661c-.629-.032-.74.944-.109.976Z" transform="translate(-60.755 -316.719)" fill="#184f78"/>
        </g>
        <g id="Group_189" data-name="Group 189" transform="translate(18.154 53.824)">
          <path id="Path_161" data-name="Path 161" d="M80.382,318.261c-1.944-2.817-7.53-2.748-9.428.166-2.4,3.69-.273,9.834,3.1,12.119,3.523,2.385,7.609.909,8.989-3.07a14.554,14.554,0,0,0-.014-7.6c-.3-1.37-.742-2.538-2.209-2.835a.493.493,0,0,0-.5.691,23.389,23.389,0,0,0,4.3,6.623,30.019,30.019,0,0,0,6.471,4.442c.544.307,1.124-.485.574-.794a31.058,31.058,0,0,1-6.028-4.048,21.733,21.733,0,0,1-4.426-6.631c-.166.232-.333.461-.5.693,2.31.469,1.912,6.988,1.574,8.427-.9,3.84-4.682,5.568-7.991,3.078-2.55-1.918-3.442-5.216-3.1-8.278a4.04,4.04,0,0,1,3.5-3.809c1.8-.4,3.828-.16,4.939,1.447.358.521,1.116-.1.758-.622Z" transform="translate(-69.926 -316.194)" fill="#184f78"/>
        </g>
        <g id="Group_190" data-name="Group 190" transform="translate(40.441 50.778)">
          <path id="Path_162" data-name="Path 162" d="M81.239,315.334a48.6,48.6,0,0,1,4.474,14.34l.968-.154q-.632-3.32-1.2-6.649c-.4-2.4-1.354-7.094,2.639-6.655,2.761.3,2.973,3.759,3.585,5.861a26.786,26.786,0,0,0,2.6,5.956c.313.542,1.209.141.893-.406a26.016,26.016,0,0,1-2.542-5.838,21.137,21.137,0,0,0-1.36-4.387,3.852,3.852,0,0,0-4.3-2.158,3.8,3.8,0,0,0-2.991,3.63c-.261,3.429,1.067,7.455,1.7,10.8a.49.49,0,0,0,.968-.154,49.358,49.358,0,0,0-4.549-14.591c-.277-.566-1.174-.162-.893.406Z" transform="translate(-81.185 -314.655)" fill="#184f78"/>
        </g>
        <g id="Group_191" data-name="Group 191" transform="translate(61.433 38.338)">
          <path id="Path_163" data-name="Path 163" d="M93.022,308.688c-2.332,9.224-2.166,21.2,7.783,25.854.574.267.924-.649.356-.915-9.42-4.4-9.415-15.925-7.223-24.585.152-.606-.762-.966-.917-.354Z" transform="translate(-91.789 -308.371)" fill="#184f78"/>
        </g>
        <g id="Group_192" data-name="Group 192" transform="translate(92.321 34.176)">
          <path id="Path_164" data-name="Path 164" d="M107.492,307.083c4.553,6.338,9.739,14.189,5.972,22.163-.271.574.647.924.915.354,3.921-8.3-1.374-16.523-6.129-23.14-.368-.513-1.126.111-.758.624Z" transform="translate(-107.393 -306.268)" fill="#184f78"/>
        </g>
        <g id="Group_193" data-name="Group 193" transform="translate(105.222 40.286)">
          <path id="Path_165" data-name="Path 165" d="M114.466,312.249q6.36-.73,12.645-1.916c.62-.117.467-1.087-.154-.968q-6.289,1.185-12.645,1.914c-.629.073-.471,1.041.154.97Z" transform="translate(-113.911 -309.355)" fill="#184f78"/>
        </g>
        <g id="Group_194" data-name="Group 194" transform="translate(108.181 45.916)">
          <path id="Path_166" data-name="Path 166" d="M115.959,315.014l11.473-1.839a.49.49,0,0,0-.154-.968q-5.737.918-11.475,1.839a.491.491,0,0,0,.156.968Z" transform="translate(-115.405 -312.199)" fill="#184f78"/>
        </g>
        <g id="Group_195" data-name="Group 195" transform="translate(130.076 17.217)">
          <path id="Path_167" data-name="Path 167" d="M132.482,297.729c-3.349-.35-7.158,2.7-5.693,6.384.511,1.283,1.651,1.485,2.936,1.487,1.694,0,2.767-.552,4.309.495,3.209,2.174-.093,5.25-2.617,5.887-.608.154-.459,1.124.154.97,2.955-.746,6.115-3.545,4.238-6.829a3.606,3.606,0,0,0-3.353-1.726c-.818-.008-2.651.55-3.355.212q-.769-1.191-1.534-2.379l.679-1.851a4.2,4.2,0,0,1,4.129-1.673.491.491,0,0,0,.107-.976Z" transform="translate(-126.466 -297.701)" fill="#184f78"/>
        </g>
        <g id="Group_196" data-name="Group 196" transform="translate(143.831 19.038)">
          <path id="Path_168" data-name="Path 168" d="M133.419,299.177a38.28,38.28,0,0,0,2.039,8.621c.216.594,1.109.184.895-.408a36.933,36.933,0,0,1-1.966-8.369c-.073-.627-1.041-.471-.968.156Z" transform="translate(-133.415 -298.621)" fill="#184f78"/>
        </g>
        <g id="Group_197" data-name="Group 197" transform="translate(142.773 14.195)">
          <path id="Path_169" data-name="Path 169" d="M133.434,297.15a.49.49,0,0,0-.156-.968.49.49,0,0,0,.156.968Z" transform="translate(-132.88 -296.174)" fill="#184f78"/>
        </g>
        <g id="Group_198" data-name="Group 198" transform="translate(148.515 14.448)">
          <path id="Path_170" data-name="Path 170" d="M135.8,296.89q1.58,5.416,3.159,10.836a.492.492,0,0,0,.97-.156c-.19-1.714-.748-3.347-.974-5.054-.295-2.223,1-7.348,4.466-4.466,2.265,1.882,2.506,7.091,2.886,9.791a.49.49,0,0,0,.968-.154c-.428-3.039-.94-11.594-5.65-11.38-5.754.261-3,8.379-2.666,11.42.323-.051.645-.1.97-.156q-1.58-5.416-3.159-10.836c-.174-.6-1.146-.449-.97.156Z" transform="translate(-135.781 -296.302)" fill="#184f78"/>
        </g>
        <g id="Group_199" data-name="Group 199" transform="translate(123.308 20.064)">
          <path id="Path_171" data-name="Path 171" d="M123.6,319.648q42.668-8.7,84.865-19.524c.608-.154.457-1.124-.154-.968q-42.184,10.817-84.865,19.522c-.618.127-.465,1.1.154.97Z" transform="translate(-123.047 -299.139)" fill="#184f78"/>
        </g>
        <g id="Group_200" data-name="Group 200" transform="translate(141.128 44.473)">
          <path id="Path_172" data-name="Path 172" d="M138.785,311.533c-3.781,2.088-7.971,7.184-6.394,11.857,1.027,3.042,8.393,4.614,8.67.58.044-.629-.932-.738-.976-.107-.055.79-2.621,1.405-3.312,1.346a4.159,4.159,0,0,1-2.265-.729c-1.829-1.259-1.544-3.626-.926-5.5a11.793,11.793,0,0,1,5.608-6.56c.55-.3.148-1.2-.406-.893Z" transform="translate(-132.049 -311.47)" fill="#184f78"/>
        </g>
        <g id="Group_201" data-name="Group 201" transform="translate(153.097 47.193)">
          <path id="Path_173" data-name="Path 173" d="M140.525,313.588a5.872,5.872,0,0,0-1.716,7.53,6.035,6.035,0,0,0,7.241,2.407,6.247,6.247,0,0,0,3.634-7.128,4.592,4.592,0,0,0-1.791-2.955c-1.683-1.047-5-.4-6.9-.392-.626,0-.738.98-.107.976,2.282-.012,6.467-.877,7.556,1.663a5.348,5.348,0,0,1-2.15,6.635,5.013,5.013,0,0,1-6.6-1.679,4.864,4.864,0,0,1,1.457-6.3c.513-.37-.111-1.128-.624-.76Z" transform="translate(-138.096 -312.844)" fill="#184f78"/>
        </g>
        <g id="Group_202" data-name="Group 202" transform="translate(167.875 41.86)">
          <path id="Path_174" data-name="Path 174" d="M148.651,310.15a2.979,2.979,0,0,0-2.656,4.511,4.238,4.238,0,0,0,2.785,1.918c.96.206,2.348-.127,3.215.348,2.193,1.2.681,3.272-.426,4.064a4.114,4.114,0,0,1-2.057.732c-.627.069-.471,1.037.156.97,2.205-.241,4.842-2.162,4.448-4.691a2.6,2.6,0,0,0-2.1-2.072,11.277,11.277,0,0,0-2.13-.222,3.5,3.5,0,0,1-2.106-.687q-1.295-.487-.578-1.975-.638-1.975,1.338-1.922c.627,0,.74-.974.109-.974Z" transform="translate(-145.561 -310.15)" fill="#184f78"/>
        </g>
        <g id="Group_203" data-name="Group 203" transform="translate(182.219 33.498)">
          <path id="Path_175" data-name="Path 175" d="M155.888,306.138c-2.175,3.436-3.949,8.387-2.625,12.459,1.257,3.868,5.572,4.994,9.116,5.733.62.129.721-.849.107-.976-3.44-.719-7.649-1.805-8.474-5.788-.758-3.656.742-7.805,2.672-10.852.337-.533-.457-1.111-.8-.576Z" transform="translate(-152.808 -305.926)" fill="#184f78"/>
        </g>
        <g id="Group_204" data-name="Group 204" transform="translate(193.153 33.85)">
          <path id="Path_176" data-name="Path 176" d="M159.192,308.371a2.459,2.459,0,0,1,2.926-1.146A3.779,3.779,0,0,1,164.7,310.6c.374,2.528-.238,6.657-3.444,6.784-.629.026-.469.994.156.97,4.2-.166,5.083-6.026,3.935-9.193-1.008-2.779-5.218-4.527-6.948-1.364-.3.548.491,1.13.794.576Z" transform="translate(-158.331 -306.103)" fill="#184f78"/>
        </g>
        <g id="Group_205" data-name="Group 205" transform="translate(198.944 32.388)">
          <path id="Path_177" data-name="Path 177" d="M162.69,305.4c-1.221.447-1.411,1.625-1.425,2.809-.024,1.8-.075,5.048,1.067,6.588,1.655,2.229,6.21.4,7.413-1.475.34-.531-.453-1.109-.8-.576-.978,1.526-5.155,3.2-6.075.8-.513-1.336-1.423-6.653.222-7.257.594-.218.184-1.11-.406-.893Z" transform="translate(-161.257 -305.365)" fill="#184f78"/>
        </g>
        <g id="Group_206" data-name="Group 206" transform="translate(204.479 26.609)">
          <path id="Path_178" data-name="Path 178" d="M164.607,303.45c1.916-.265,4.163,1.952,5.434,3.161a15.684,15.684,0,0,1,3.229,4.147,9.409,9.409,0,0,1-.42,9.88.491.491,0,0,0,.8.576c2.49-3.466,2.239-7.94.139-11.544-1.611-2.771-5.725-7.686-9.331-7.19a.491.491,0,0,0,.154.97Z" transform="translate(-164.053 -302.445)" fill="#184f78"/>
        </g>
        <g id="Group_207" data-name="Group 207" transform="translate(170.257 6.889)">
          <path id="Path_179" data-name="Path 179" d="M149.847,292.7c-2.177,3.436-3.951,8.387-2.627,12.459,1.259,3.868,5.572,4.994,9.116,5.733.62.129.721-.849.109-.976-3.44-.719-7.649-1.805-8.474-5.788-.758-3.656.742-7.807,2.67-10.852.337-.533-.455-1.111-.794-.576Z" transform="translate(-146.765 -292.484)" fill="#184f78"/>
        </g>
        <g id="Group_208" data-name="Group 208" transform="translate(181.191 7.241)">
          <path id="Path_180" data-name="Path 180" d="M153.151,294.929a2.458,2.458,0,0,1,2.926-1.146,3.778,3.778,0,0,1,2.579,3.373c.374,2.528-.238,6.657-3.442,6.784-.631.026-.469.994.154.97,4.2-.166,5.083-6.026,3.937-9.193-1.008-2.779-5.22-4.527-6.95-1.364-.3.548.493,1.13.8.576Z" transform="translate(-152.288 -292.661)" fill="#184f78"/>
        </g>
        <g id="Group_209" data-name="Group 209" transform="translate(186.982 5.779)">
          <path id="Path_181" data-name="Path 181" d="M156.647,291.957c-1.219.447-1.409,1.625-1.425,2.807-.022,1.8-.075,5.05,1.067,6.59,1.655,2.229,6.21.4,7.413-1.475.34-.53-.453-1.109-.794-.576-.978,1.526-5.157,3.2-6.077.8-.511-1.336-1.423-6.653.224-7.257.592-.218.184-1.111-.408-.893Z" transform="translate(-155.214 -291.923)" fill="#184f78"/>
        </g>
        <g id="Group_210" data-name="Group 210" transform="translate(71.378 41.154)">
          <path id="Path_182" data-name="Path 182" d="M97.785,312.835c1.085-2.074,3.662-2.443,5.667-1.609,2.134.889,3.2,3.114,3.555,5.279.649,4.01-.313,11.113-5.586,11.242-.622.016-.736.992-.107.976,6.485-.158,7.888-8.979,6.293-13.926-1.431-4.444-8.061-7.433-10.737-2.316-.293.56.626.909.915.354Z" transform="translate(-96.813 -309.793)" fill="#184f78"/>
        </g>
        <g id="Group_211" data-name="Group 211" transform="translate(80.672 38.832)">
          <path id="Path_183" data-name="Path 183" d="M103.612,308.645c-1.825.562-2.088,2.472-2.1,4.161A40.783,40.783,0,0,0,102,318.7c.192,1.372.273,3.248,1.128,4.436,1.2,1.663,3.609,1.4,5.4,1.138a7.954,7.954,0,0,0,5.962-3.448c.333-.533-.461-1.112-.8-.576-1.748,2.8-8.67,5.176-10.185,1.194a22.083,22.083,0,0,1-.847-5.61c-.148-1.687-.926-5.59,1.356-6.293.6-.186.19-1.077-.408-.893Z" transform="translate(-101.509 -308.62)" fill="#184f78"/>
        </g>
        <g id="Group_212" data-name="Group 212" transform="translate(192.518 0)">
          <path id="Path_184" data-name="Path 184" d="M158.564,290.008c1.916-.265,4.165,1.952,5.434,3.161a15.686,15.686,0,0,1,3.229,4.147,9.409,9.409,0,0,1-.42,9.88.491.491,0,0,0,.8.576c2.49-3.466,2.239-7.94.141-11.546-1.613-2.769-5.727-7.684-9.333-7.188a.491.491,0,0,0,.154.97Z" transform="translate(-158.01 -289.003)" fill="#184f78"/>
        </g>
      </g>
      <g id="Group_215" data-name="Group 215" transform="translate(71.878 462.879)">
        <path id="Path_185" data-name="Path 185" d="M168.766,387.882l-3.3-10.133c-.748-.323-1.457-.667-2.134-1.027-.226-.119-.432-.249-.649-.372-.436-.247-.873-.495-1.279-.754-.243-.156-.467-.321-.7-.481-.352-.243-.7-.487-1.035-.74-.23-.176-.443-.36-.663-.542-.3-.251-.6-.5-.885-.762-.21-.192-.406-.388-.6-.584-.265-.263-.525-.527-.772-.8-.182-.2-.36-.408-.532-.614-.234-.275-.461-.556-.677-.839-.154-.2-.309-.412-.455-.62q-.315-.445-.6-.9c-.129-.2-.255-.4-.376-.606-.188-.323-.364-.649-.536-.978-.1-.19-.2-.378-.293-.568-.176-.364-.337-.732-.491-1.1-.065-.158-.137-.315-.2-.473-.176-.447-.335-.9-.481-1.35-.026-.081-.059-.162-.085-.245a28.169,28.169,0,0,1-1.194-6.685V356.7c-.034-.544-.051-1.085-.057-1.619v-.034c-.006-.533,0-1.061.016-1.582h0a42.677,42.677,0,0,1,2.431-12.708l-2.122-8.247-47.6,13.667,3.3,8.718c24.035,13.9,8.482,37,8.482,37l3.3,10.6h0l50.19-14.611Z" transform="translate(-90.77 -324.506)" fill="#184f78" opacity="0.12"/>
        <g id="Group_214" data-name="Group 214">
          <path id="Path_186" data-name="Path 186" d="M97.066,342.131l47.6-13.666,2.122,8.247s-10.6,27.1,12.253,37l3.3,10.131-50.19,14.611-3.3-10.6s15.553-23.093-8.484-36.995Z" transform="translate(-97.066 -328.465)" fill="#184f78"/>
          <circle id="Ellipse_24" data-name="Ellipse 24" cx="2.828" cy="2.828" r="2.828" transform="translate(30.398 31.576)" fill="#f5f8fb"/>
          <path id="Path_187" data-name="Path 187" d="M153.208,363.339c-12.435-5.384-14.961-15.854-14.684-24.287-7.148,15.66-18.508,32.543-35.5,38.438l3.3,10.59,50.19-14.611Z" transform="translate(-91.234 -318.095)" fill="#124768"/>
          <path id="Path_188" data-name="Path 188" d="M107.125,339.394c.707,0,13.785-4.007,13.785-4.007l11.663,37.937L117.8,377.968Z" transform="translate(-87.213 -321.685)" fill="#f5f8fb"/>
          <path id="Path_189" data-name="Path 189" d="M110.529,337.785l8.1-2.673,11.487,38.262-8.424,2.68" transform="translate(-83.879 -321.955)" fill="#e1e8ef"/>
          <path id="Path_190" data-name="Path 190" d="M118,348.352a2.549,2.549,0,1,1-2.55-2.55A2.549,2.549,0,0,1,118,348.352Z" transform="translate(-81.557 -311.483)" fill="#184f78"/>
        </g>
      </g>
      <g id="Group_217" data-name="Group 217" transform="translate(258.049 468.971)">
        <path id="Path_191" data-name="Path 191" d="M401.8,400.875c0-.008,0-.016,0-.024a1.03,1.03,0,0,0-.281-.627,1.13,1.13,0,0,0-.317-.228l-11.287-5.5h0l-20.656-10.068-.01.069a4.188,4.188,0,0,0-.438-.142L199.7,348.256a4.08,4.08,0,0,0-3.987,1.35,20.6,20.6,0,0,0-4.272,7.884h0v0c-.081.331-.145.665-.2,1l-.018.119c-.044.309-.075.618-.093.93,0,.077-.006.155-.008.232-.01.283-.01.564,0,.849.006.113.018.228.028.342.022.255.049.509.093.764.026.15.063.3.1.451.051.224.1.447.168.671.057.188.135.374.2.562s.137.382.224.572c.107.232.24.461.368.691.083.148.152.3.243.445a10.768,10.768,0,0,0,.812,1.126,4.226,4.226,0,0,0,.493.5,4.179,4.179,0,0,0,1.877.926l84.487,17.475,84.487,17.477a4.217,4.217,0,0,0,.812.085,4.039,4.039,0,0,0,.792-.071,4.26,4.26,0,0,0,.523-.154v0l21.569-.3h0l12.354-.172a1.046,1.046,0,0,0,.687-.255c.016-.014.026-.034.04-.047a1.056,1.056,0,0,0,.226-.34A1.1,1.1,0,0,0,401.8,400.875Z" transform="translate(-191.115 -315.263)" fill="#184f78" opacity="0.12"/>
        <g id="Group_216" data-name="Group 216" transform="translate(10.964)">
          <path id="Path_192" data-name="Path 192" d="M366.956,408.8l3.975-9.733a4.111,4.111,0,0,0-2.338-5.394L207.1,331.817a4.086,4.086,0,0,0-4.147.719c-3.24,2.837-8.959,9.2-4.9,16.081a4.175,4.175,0,0,0,2.12,1.78l161.524,60.7A4.112,4.112,0,0,0,366.956,408.8Z" transform="translate(-196.654 -331.543)" fill="#184f78"/>
          <path id="Path_193" data-name="Path 193" d="M367.777,399.179c-1.231-.394-135.624-50.594-170.265-63.534a9.6,9.6,0,0,0,.544,8.953,4.175,4.175,0,0,0,2.12,1.78l161.524,60.7a4.112,4.112,0,0,0,5.254-2.294l3.975-9.733a4.092,4.092,0,0,0,.2-2.468Z" transform="translate(-196.651 -327.524)" fill="#124768"/>
          <path id="Path_194" data-name="Path 194" d="M286.305,363l29.148,20.328a1.07,1.07,0,0,1-.764,1.936L281.1,380.476Z" transform="translate(-113.935 -300.731)" fill="#efc4a3"/>
          <path id="Path_195" data-name="Path 195" d="M292.023,377.015l12.229,1.744a1.07,1.07,0,0,0,.764-1.936l-10.3-7.184C291.609,372.656,291.447,375.239,292.023,377.015Z" transform="translate(-103.497 -294.227)" fill="#184f78"/>
        </g>
      </g>
    </g>
  </g>
</svg>
