<svg xmlns="http://www.w3.org/2000/svg" xmlns:xlink="http://www.w3.org/1999/xlink" width="563.85" height="417.27" viewBox="0 0 563.85 417.27">
  <defs>
    <linearGradient id="linear-gradient" x1="0.5" x2="0.5" y2="1" gradientUnits="objectBoundingBox">
      <stop offset="0" stop-color="#fdb03b"/>
      <stop offset="1" stop-color="#ec5346"/>
    </linearGradient>
    <linearGradient id="linear-gradient-2" x1="0.5" x2="0.5" y2="1" gradientUnits="objectBoundingBox">
      <stop offset="0" stop-color="#41e2c5"/>
      <stop offset="1" stop-color="#8593eb"/>
    </linearGradient>
  </defs>
  <g id="Group_289" data-name="Group 289" transform="translate(-144.429 -103.457)">
    <g id="Group_58" data-name="Group 58" transform="matrix(0.966, -0.259, 0.259, 0.966, -43.598, 57.565)">
      <line id="Line_1" data-name="Line 1" x2="9.046" transform="translate(163.5 121.023)" fill="none" stroke="#6ae9c0" stroke-linecap="round" stroke-width="2"/>
      <line id="Line_2" data-name="Line 2" x2="9.046" transform="translate(168.023 116.5) rotate(90)" fill="none" stroke="#6ae9c0" stroke-linecap="round" stroke-width="2"/>
    </g>
    <g id="Group_59" data-name="Group 59" transform="matrix(0.966, -0.259, 0.259, 0.966, 509.064, 372.565)">
      <line id="Line_1-2" data-name="Line 1" x2="9.046" transform="translate(163.5 121.023)" fill="none" stroke="#6ae9c0" stroke-linecap="round" stroke-width="2"/>
      <line id="Line_2-2" data-name="Line 2" x2="9.046" transform="translate(168.023 116.5) rotate(90)" fill="none" stroke="#6ae9c0" stroke-linecap="round" stroke-width="2"/>
    </g>
    <g id="Group_60" data-name="Group 60" transform="matrix(0.966, -0.259, 0.259, 0.966, 434.916, 434.97)">
      <line id="Line_1-3" data-name="Line 1" x2="16.386" transform="translate(163.5 124.693)" fill="none" stroke="#3a3564" stroke-linecap="round" stroke-width="3"/>
      <line id="Line_2-3" data-name="Line 2" x2="16.386" transform="translate(171.693 116.5) rotate(90)" fill="none" stroke="#3a3564" stroke-linecap="round" stroke-width="3"/>
    </g>
    <path id="Path_24" data-name="Path 24" d="M-622.34-74.872l25.787,15.063V-89.426S-621.574-75.128-622.34-74.872Zm22.7,9.406-15.936-9.309c.473-.158,15.936-8.993,15.936-8.993Z" transform="translate(770.34 304.426)" opacity="0.32" fill="url(#linear-gradient)"/>
    <path id="Path_25" data-name="Path 25" d="M-622.34-74.872l25.787,15.063V-89.426S-621.574-75.128-622.34-74.872Zm22.7,9.406-15.936-9.309c.473-.158,15.936-8.993,15.936-8.993Z" transform="translate(1129.058 492.073) rotate(30)" opacity="0.32" fill="url(#linear-gradient-2)"/>
  </g>
</svg>
