<svg xmlns="http://www.w3.org/2000/svg" width="176.792" height="49.457" viewBox="0 0 176.792 49.457">
  <g id="Logo" transform="translate(405.866 -130.103)">
    <g id="Group_57" data-name="Group 57" transform="translate(-347.853 135.821)">
      <path id="Path_2" data-name="Path 2" d="M-312.831,140.439a1.194,1.194,0,0,1,.423.4l3.856,6.03,3.832-6.048a1.108,1.108,0,0,1,.433-.4,1.165,1.165,0,0,1,.546-.138,1.044,1.044,0,0,1,.728.276.972.972,0,0,1,.3.756v9.754a.83.83,0,0,1-.332.709,1.225,1.225,0,0,1-.756.249,1.143,1.143,0,0,1-.747-.249.869.869,0,0,1-.3-.709v-6.213l-2.747,4.3a1.036,1.036,0,0,1-.405.4,1.171,1.171,0,0,1-.553.136,1.148,1.148,0,0,1-.573-.157,1.07,1.07,0,0,1-.425-.432l-2.71-4.223v6.195a.84.84,0,0,1-.324.709,1.175,1.175,0,0,1-.745.249,1.177,1.177,0,0,1-.757-.249.853.853,0,0,1-.314-.709v-9.735a.993.993,0,0,1,.314-.756,1.042,1.042,0,0,1,.737-.3,1.027,1.027,0,0,1,.517.148" transform="translate(314.861 -139.719)" fill="#464341"/>
      <path id="Path_3" data-name="Path 3" d="M-282.713,144.267a.892.892,0,0,1,.3.69v7.468a.894.894,0,0,1-.3.691,1.083,1.083,0,0,1-.757.268,1.106,1.106,0,0,1-.709-.212.871.871,0,0,1-.324-.562,4.207,4.207,0,0,1-1.373.719,4.986,4.986,0,0,1-1.5.24,4.231,4.231,0,0,1-2.294-.607,3.943,3.943,0,0,1-1.485-1.716,6.049,6.049,0,0,1-.516-2.581,5.346,5.346,0,0,1,.571-2.516,4.247,4.247,0,0,1,1.594-1.716,4.5,4.5,0,0,1,2.37-.617,4.182,4.182,0,0,1,1.337.239,4.578,4.578,0,0,1,1.3.683.861.861,0,0,1,.342-.544,1.155,1.155,0,0,1,.691-.195,1.08,1.08,0,0,1,.757.269m-2.85,7.071a2.186,2.186,0,0,0,1.044-1.051V147.1a2.4,2.4,0,0,0-1.025-1.043,2.98,2.98,0,0,0-1.448-.378,2.339,2.339,0,0,0-1.871.839,3.234,3.234,0,0,0-.711,2.166,3.4,3.4,0,0,0,.666,2.194,2.134,2.134,0,0,0,1.751.83A3.469,3.469,0,0,0-285.563,151.338Z" transform="translate(306.168 -141.067)" fill="#464341"/>
      <path id="Path_4" data-name="Path 4" d="M-268.322,150.005a.9.9,0,0,1,.656.266.874.874,0,0,1,.264.637.848.848,0,0,1-.155.488,1.292,1.292,0,0,1-.452.4,2.479,2.479,0,0,1-.692.258,4.889,4.889,0,0,1-.819.056q-2.967,0-2.967-3.469v-4.349h-.7a1.039,1.039,0,0,1-.748-.257.82.82,0,0,1-.267-.609.842.842,0,0,1,.267-.617,1.014,1.014,0,0,1,.748-.27h.7V140.95a.868.868,0,0,1,.3-.7,1.09,1.09,0,0,1,.728-.258,1.13,1.13,0,0,1,.738.258.863.863,0,0,1,.312.7v1.586h1.439a.988.988,0,0,1,.729.27.843.843,0,0,1,.268.617.821.821,0,0,1-.268.609,1.011,1.011,0,0,1-.729.257h-1.439v4.349a3.379,3.379,0,0,0,.177,1.209.688.688,0,0,0,.709.453,1.467,1.467,0,0,0,.59-.13,1.391,1.391,0,0,1,.608-.165" transform="translate(299.485 -139.604)" fill="#464341"/>
      <path id="Path_5" data-name="Path 5" d="M-252.727,143.569a4.691,4.691,0,0,1,1.079,3.226v4.166a.911.911,0,0,1-.277.7,1.091,1.091,0,0,1-.775.259,1.083,1.083,0,0,1-.756-.268.893.893,0,0,1-.3-.693v-4.2a2.871,2.871,0,0,0-.561-1.881A2.055,2.055,0,0,0-256,144.2a2.789,2.789,0,0,0-1.189.313,2.894,2.894,0,0,0-1.116.968,2.793,2.793,0,0,0-.461,1.652v3.832a.93.93,0,0,1-.267.7,1.054,1.054,0,0,1-.764.259,1.133,1.133,0,0,1-.793-.268.89.89,0,0,1-.3-.693V140.879a.76.76,0,0,1,.324-.646,1.214,1.214,0,0,1,.746-.24,1.174,1.174,0,0,1,.736.24.769.769,0,0,1,.314.646v2.507a4.548,4.548,0,0,1,3.06-1.035,3.781,3.781,0,0,1,2.98,1.218" transform="translate(294.39 -139.604)" fill="#464341"/>
      <path id="Path_6" data-name="Path 6" d="M-242.788,150.951a.782.782,0,0,1,.341-.646,1.212,1.212,0,0,1,.746-.259.954.954,0,0,1,.59.194,1.177,1.177,0,0,1,.388.581,1.182,1.182,0,0,0,.821.7,4.445,4.445,0,0,0,1.5.24,3.129,3.129,0,0,0,1.6-.359,1.053,1.053,0,0,0,.608-.913.673.673,0,0,0-.553-.682,9.1,9.1,0,0,0-1.733-.258,18,18,0,0,1-2.223-.32,2.928,2.928,0,0,1-1.42-.767,2.276,2.276,0,0,1-.581-1.7,2.459,2.459,0,0,1,.516-1.549,3.358,3.358,0,0,1,1.458-1.035,5.973,5.973,0,0,1,2.176-.367q3.355,0,4.131,2.009a1.019,1.019,0,0,1,.056.3.812.812,0,0,1-.344.683,1.19,1.19,0,0,1-.745.257,1.074,1.074,0,0,1-.554-.128.883.883,0,0,1-.349-.444q-.386-.846-2.194-.847a3.032,3.032,0,0,0-1.483.313.934.934,0,0,0-.563.831.594.594,0,0,0,.33.617,4.438,4.438,0,0,0,1.163.212,5.367,5.367,0,0,1,.737.054,19.713,19.713,0,0,1,2.3.361,2.973,2.973,0,0,1,1.392.763,2.261,2.261,0,0,1,.592,1.7,2.544,2.544,0,0,1-.546,1.605,3.5,3.5,0,0,1-1.52,1.086,6.05,6.05,0,0,1-2.249.388,7.213,7.213,0,0,1-2.767-.508,2.6,2.6,0,0,1-1.586-1.871,1.133,1.133,0,0,1-.035-.239" transform="translate(287.466 -141.067)" fill="#464341"/>
      <path id="Path_7" data-name="Path 7" d="M-215.847,151.074a.547.547,0,0,1-.194.452.713.713,0,0,1-.468.155.761.761,0,0,1-.479-.155.537.537,0,0,1-.2-.452v-7.431h-1a.5.5,0,0,1-.388-.167.569.569,0,0,1-.148-.387.6.6,0,0,1,.148-.4.5.5,0,0,1,.406-.175h.977v-.5a2.507,2.507,0,0,1,.388-1.392,2.634,2.634,0,0,1,1.031-.93,2.93,2.93,0,0,1,1.366-.334,2.742,2.742,0,0,1,1.734.592.627.627,0,0,1,.24.46.57.57,0,0,1-.194.423.635.635,0,0,1-.452.185.515.515,0,0,1-.351-.128,1.258,1.258,0,0,0-.905-.332,1.553,1.553,0,0,0-1.058.395,1.36,1.36,0,0,0-.453,1.078v.481h1.771a.443.443,0,0,1,.369.164.631.631,0,0,1,.128.388.653.653,0,0,1-.128.406.445.445,0,0,1-.369.167h-1.771Z" transform="translate(278.26 -139.364)" fill="#464341"/>
      <path id="Path_8" data-name="Path 8" d="M-205.626,140.564a.768.768,0,0,1-.5.165.74.74,0,0,1-.479-.165.563.563,0,0,1-.2-.462v-.091a.575.575,0,0,1,.212-.472.74.74,0,0,1,.489-.175.705.705,0,0,1,.477.175.594.594,0,0,1,.2.472v.091a.568.568,0,0,1-.2.462m-.959,1.945a.764.764,0,0,1,.482-.159.72.72,0,0,1,.468.159.519.519,0,0,1,.194.432v8.132a.545.545,0,0,1-.194.451.717.717,0,0,1-.468.156.761.761,0,0,1-.482-.156.536.536,0,0,1-.2-.451v-8.115A.531.531,0,0,1-206.585,142.509Z" transform="translate(273.7 -139.364)" fill="#464341"/>
      <path id="Path_9" data-name="Path 9" d="M-196.686,142.6a.533.533,0,0,1,.165.387.552.552,0,0,1-.165.406.617.617,0,0,1-.461.165h-2.009v5.015a3.64,3.64,0,0,0,.286,1.569,1.132,1.132,0,0,0,1.132.59,2.078,2.078,0,0,0,.47-.064,1.621,1.621,0,0,0,.4-.138.783.783,0,0,1,.367-.111.544.544,0,0,1,.414.186.589.589,0,0,1,.177.423.705.705,0,0,1-.406.607,2.865,2.865,0,0,1-1.421.313q-2.745,0-2.745-3.374v-5.015H-201.7a.617.617,0,0,1-.46-.165.527.527,0,0,1-.167-.388.561.561,0,0,1,.167-.4.606.606,0,0,1,.46-.175h1.219v-2.194a.63.63,0,0,1,.192-.489.686.686,0,0,1,.47-.174.685.685,0,0,1,.47.174.627.627,0,0,1,.194.489v2.194h2.009a.62.62,0,0,1,.461.167" transform="translate(271.988 -139.445)" fill="#464341"/>
      <path id="Path_10" data-name="Path 10" d="M-181.715,146.55a2.849,2.849,0,0,0-1.053-1.022,2.8,2.8,0,0,0-1.409-.369,3.383,3.383,0,0,0-1.687.451,3.514,3.514,0,0,0-1.29,1.254,3.358,3.358,0,0,0-.489,1.778v4.13a.632.632,0,0,1-.175.482.688.688,0,0,1-.488.164.724.724,0,0,1-.506-.173.605.605,0,0,1-.2-.472v-8.038a.6.6,0,0,1,.2-.47.679.679,0,0,1,.47-.175.672.672,0,0,1,.468.175.629.629,0,0,1,.194.49v1.069a3.139,3.139,0,0,1,1.429-1.437,4.541,4.541,0,0,1,2.093-.48,4.458,4.458,0,0,1,2.047.488,3.893,3.893,0,0,1,1.547,1.429,4.063,4.063,0,0,1,.592,2.211v4.739a.644.644,0,0,1-.175.482.7.7,0,0,1-.491.164.694.694,0,0,1-.5-.173.626.626,0,0,1-.184-.472v-4.739a2.8,2.8,0,0,0-.4-1.483" transform="translate(266.892 -141.101)" fill="#464341"/>
      <path id="Path_11" data-name="Path 11" d="M-161.907,149.545h-7.285a3.363,3.363,0,0,0,.582,1.41,3.377,3.377,0,0,0,1.18,1.025,3.385,3.385,0,0,0,1.613.388,3.921,3.921,0,0,0,2.452-.776.748.748,0,0,1,.517-.2.654.654,0,0,1,.443.167.531.531,0,0,1,.184.406.756.756,0,0,1-.258.534,3.817,3.817,0,0,1-1.474.848,5.609,5.609,0,0,1-1.807.258,4.933,4.933,0,0,1-2.518-.635,4.322,4.322,0,0,1-1.687-1.753,5.261,5.261,0,0,1-.592-2.5,4.857,4.857,0,0,1,.666-2.582,4.449,4.449,0,0,1,1.742-1.658,4.843,4.843,0,0,1,2.3-.574,5.555,5.555,0,0,1,2.388.517,4.146,4.146,0,0,1,1.768,1.594,5.087,5.087,0,0,1,.691,2.683c0,.566-.3.848-.9.848m-.388-1.124a3.6,3.6,0,0,0-.609-1.788,3.3,3.3,0,0,0-1.282-1.108,3.609,3.609,0,0,0-1.574-.369,3.565,3.565,0,0,0-2.38.841,3.316,3.316,0,0,0-1.107,2.423Z" transform="translate(259.833 -141.1)" fill="#464341"/>
      <path id="Path_12" data-name="Path 12" d="M-152.457,151.168a.539.539,0,0,1,.212-.433.741.741,0,0,1,.489-.175.609.609,0,0,1,.388.13.659.659,0,0,1,.221.4q.129.589,1.014.95a5.144,5.144,0,0,0,1.955.359,4.517,4.517,0,0,0,1.2-.184,3.2,3.2,0,0,0,1.152-.573,1.2,1.2,0,0,0,.489-.976.928.928,0,0,0-.388-.821,2.274,2.274,0,0,0-.921-.361q-.536-.091-1.584-.167a19.256,19.256,0,0,1-2.177-.3,2.827,2.827,0,0,1-1.382-.718,2.105,2.105,0,0,1-.572-1.6,2.168,2.168,0,0,1,.608-1.557,3.634,3.634,0,0,1,1.531-.94,5.977,5.977,0,0,1,1.879-.305,7.577,7.577,0,0,1,2.51.388,2.434,2.434,0,0,1,1.53,1.493.964.964,0,0,1,.035.222.579.579,0,0,1-.219.461.758.758,0,0,1-.5.183.56.56,0,0,1-.573-.388q-.442-1.142-2.786-1.14a4.1,4.1,0,0,0-1.815.414,1.289,1.289,0,0,0-.856,1.188.914.914,0,0,0,.322.757,1.785,1.785,0,0,0,.811.349,10.867,10.867,0,0,0,1.338.148,2.306,2.306,0,0,1,.369.02,17.574,17.574,0,0,1,2.2.313,2.884,2.884,0,0,1,1.4.737,2.133,2.133,0,0,1,.582,1.623,2.283,2.283,0,0,1-.681,1.723,3.893,3.893,0,0,1-1.642.93,6.614,6.614,0,0,1-1.862.278,7.245,7.245,0,0,1-2.746-.517,2.293,2.293,0,0,1-1.514-1.752.5.5,0,0,1-.019-.165" transform="translate(252.909 -141.1)" fill="#464341"/>
      <path id="Path_13" data-name="Path 13" d="M-136.481,151.168a.537.537,0,0,1,.212-.433.737.737,0,0,1,.489-.175.607.607,0,0,1,.388.13.659.659,0,0,1,.221.4c.086.393.422.709,1.014.95a5.138,5.138,0,0,0,1.955.359,4.512,4.512,0,0,0,1.2-.184,3.215,3.215,0,0,0,1.153-.573,1.2,1.2,0,0,0,.488-.976.929.929,0,0,0-.388-.821,2.276,2.276,0,0,0-.922-.361q-.535-.091-1.584-.167a19.27,19.27,0,0,1-2.178-.3,2.835,2.835,0,0,1-1.382-.718,2.107,2.107,0,0,1-.571-1.6,2.166,2.166,0,0,1,.608-1.557,3.639,3.639,0,0,1,1.529-.94,6,6,0,0,1,1.881-.305,7.577,7.577,0,0,1,2.51.388,2.434,2.434,0,0,1,1.53,1.493.964.964,0,0,1,.035.222.58.58,0,0,1-.219.461.759.759,0,0,1-.5.183.557.557,0,0,1-.572-.388q-.444-1.142-2.787-1.14a4.1,4.1,0,0,0-1.815.414,1.289,1.289,0,0,0-.856,1.188.91.91,0,0,0,.322.757,1.788,1.788,0,0,0,.811.349,10.853,10.853,0,0,0,1.338.148,2.3,2.3,0,0,1,.369.02,17.593,17.593,0,0,1,2.2.313,2.883,2.883,0,0,1,1.4.737,2.133,2.133,0,0,1,.581,1.623,2.282,2.282,0,0,1-.68,1.723,3.894,3.894,0,0,1-1.641.93,6.625,6.625,0,0,1-1.863.278,7.248,7.248,0,0,1-2.747-.517,2.293,2.293,0,0,1-1.513-1.752.521.521,0,0,1-.019-.165" transform="translate(246.797 -141.1)" fill="#464341"/>
      <path id="Path_14" data-name="Path 14" d="M-308.685,180.09a2.763,2.763,0,0,1,1.245,1.106v-.607a.677.677,0,0,1,.174-.482.648.648,0,0,1,.489-.184.688.688,0,0,1,.49.184.63.63,0,0,1,.194.482v8a.654.654,0,0,1-.185.479.679.679,0,0,1-.5.183.665.665,0,0,1-.489-.175.667.667,0,0,1-.174-.487v-.8a2.757,2.757,0,0,1-1.245,1.2,3.781,3.781,0,0,1-1.742.441,4.9,4.9,0,0,1-2.414-.59,4.247,4.247,0,0,1-1.687-1.7,5.3,5.3,0,0,1-.621-2.612,5.057,5.057,0,0,1,.638-2.607,4.135,4.135,0,0,1,1.732-1.633,5.327,5.327,0,0,1,2.426-.551,4.057,4.057,0,0,1,1.668.35m.4,7.282a2.6,2.6,0,0,0,.847-2.046v-1.458a2.644,2.644,0,0,0-.812-2.065,3.233,3.233,0,0,0-2.12-.792,3.3,3.3,0,0,0-1.843.46,3.155,3.155,0,0,0-1.181,1.29,3.916,3.916,0,0,0-.4,1.768,3.533,3.533,0,0,0,.561,2.066,3.45,3.45,0,0,0,1.355,1.19,3.436,3.436,0,0,0,1.476.378A3.208,3.208,0,0,0-308.286,187.372Z" transform="translate(315.148 -154.81)" fill="#464341"/>
      <path id="Path_15" data-name="Path 15" d="M-290.633,181.205a3.517,3.517,0,0,0-1.364-.268,3.146,3.146,0,0,0-1.715.479,3.3,3.3,0,0,0-1.18,1.318,4.1,4.1,0,0,0-.425,1.873,3.9,3.9,0,0,0,.425,1.817,3.353,3.353,0,0,0,1.19,1.308,3.194,3.194,0,0,0,1.761.49,3.7,3.7,0,0,0,1.484-.307,2.778,2.778,0,0,0,1.171-.93.512.512,0,0,1,.441-.24.689.689,0,0,1,.462.175.556.556,0,0,1,.2.433.637.637,0,0,1-.186.425,4.334,4.334,0,0,1-1.6,1.225,4.762,4.762,0,0,1-1.992.433,4.6,4.6,0,0,1-2.434-.646,4.512,4.512,0,0,1-1.668-1.75,5.124,5.124,0,0,1-.6-2.469,5.531,5.531,0,0,1,.472-2.176,4.469,4.469,0,0,1,1.539-1.883,4.646,4.646,0,0,1,2.786-.774,4.344,4.344,0,0,1,1.8.367,4.651,4.651,0,0,1,1.53,1.181.5.5,0,0,1,.149.37.565.565,0,0,1-.2.425.673.673,0,0,1-.46.184.6.6,0,0,1-.442-.223,3.094,3.094,0,0,0-1.144-.837" transform="translate(308.076 -154.81)" fill="#464341"/>
      <path id="Path_16" data-name="Path 16" d="M-274.22,180.09a2.762,2.762,0,0,1,1.244,1.106v-.607a.677.677,0,0,1,.174-.482.649.649,0,0,1,.488-.184.687.687,0,0,1,.49.184.632.632,0,0,1,.194.482v8a.654.654,0,0,1-.184.479.673.673,0,0,1-.5.183.666.666,0,0,1-.488-.175.666.666,0,0,1-.174-.487v-.8a2.761,2.761,0,0,1-1.244,1.2,3.793,3.793,0,0,1-1.743.441,4.9,4.9,0,0,1-2.415-.59,4.247,4.247,0,0,1-1.687-1.7,5.3,5.3,0,0,1-.619-2.612,5.057,5.057,0,0,1,.636-2.607,4.146,4.146,0,0,1,1.732-1.633,5.325,5.325,0,0,1,2.427-.551,4.066,4.066,0,0,1,1.669.35m.4,7.282a2.6,2.6,0,0,0,.848-2.046v-1.458a2.646,2.646,0,0,0-.812-2.065,3.232,3.232,0,0,0-2.119-.792,3.3,3.3,0,0,0-1.845.46,3.154,3.154,0,0,0-1.18,1.29,3.917,3.917,0,0,0-.4,1.768,3.527,3.527,0,0,0,.561,2.066,3.462,3.462,0,0,0,1.355,1.19,3.444,3.444,0,0,0,1.476.378A3.207,3.207,0,0,0-273.824,187.372Z" transform="translate(301.963 -154.81)" fill="#464341"/>
      <path id="Path_17" data-name="Path 17" d="M-255.737,178.408a2.692,2.692,0,0,1,1.217,1.106v-3.669a.59.59,0,0,1,.2-.47.721.721,0,0,1,.482-.175.673.673,0,0,1,.469.175.6.6,0,0,1,.194.47V186.87a.62.62,0,0,1-.184.472.7.7,0,0,1-.5.175.563.563,0,0,1-.625-.647v-.755a2.724,2.724,0,0,1-1.274,1.2,4.1,4.1,0,0,1-1.751.388,4.9,4.9,0,0,1-2.378-.582,4.3,4.3,0,0,1-1.7-1.687,5.213,5.213,0,0,1-.638-2.654,5.434,5.434,0,0,1,.469-2.149,4.368,4.368,0,0,1,1.532-1.852,4.566,4.566,0,0,1,2.718-.757,4.065,4.065,0,0,1,1.771.388m.4,7.191a2.61,2.61,0,0,0,.821-2.01v-1.456a2.644,2.644,0,0,0-.829-1.992,3.139,3.139,0,0,0-2.1-.848,3.356,3.356,0,0,0-2.038.563,3.076,3.076,0,0,0-1.079,1.355,4.1,4.1,0,0,0-.314,1.512,3.812,3.812,0,0,0,.553,2.157,3.2,3.2,0,0,0,1.357,1.188,3.839,3.839,0,0,0,1.576.361A3.22,3.22,0,0,0-255.341,185.6Z" transform="translate(294.903 -153.073)" fill="#464341"/>
      <path id="Path_18" data-name="Path 18" d="M-235.1,185.38h-7.284a3.34,3.34,0,0,0,.581,1.409,3.346,3.346,0,0,0,1.18,1.025,3.376,3.376,0,0,0,1.613.388,3.912,3.912,0,0,0,2.452-.775.747.747,0,0,1,.517-.2.645.645,0,0,1,.443.167.523.523,0,0,1,.184.4.764.764,0,0,1-.258.537,3.8,3.8,0,0,1-1.474.846,5.557,5.557,0,0,1-1.807.259,4.915,4.915,0,0,1-2.518-.637,4.32,4.32,0,0,1-1.687-1.751,5.271,5.271,0,0,1-.59-2.5,4.85,4.85,0,0,1,.664-2.58,4.487,4.487,0,0,1,1.743-1.66,4.843,4.843,0,0,1,2.294-.571,5.548,5.548,0,0,1,2.389.517,4.133,4.133,0,0,1,1.768,1.594,5.079,5.079,0,0,1,.693,2.682q0,.849-.9.849m-.388-1.124a3.6,3.6,0,0,0-.608-1.788,3.289,3.289,0,0,0-1.283-1.108,3.584,3.584,0,0,0-1.574-.369,3.559,3.559,0,0,0-2.38.841,3.312,3.312,0,0,0-1.108,2.423Z" transform="translate(287.831 -154.809)" fill="#464341"/>
      <path id="Path_19" data-name="Path 19" d="M-209.848,182.32a2.693,2.693,0,0,0-1.032-.977,2.936,2.936,0,0,0-1.421-.351,3.472,3.472,0,0,0-1.75.451,3.336,3.336,0,0,0-1.254,1.264,3.669,3.669,0,0,0-.462,1.842v4.057a.621.621,0,0,1-.183.472.69.69,0,0,1-.5.175.694.694,0,0,1-.5-.175.619.619,0,0,1-.183-.472v-4.572a3.563,3.563,0,0,0-.324-1.51,2.455,2.455,0,0,0-.948-1.089,2.943,2.943,0,0,0-1.587-.425,3.493,3.493,0,0,0-1.7.433,3.351,3.351,0,0,0-1.272,1.227,3.379,3.379,0,0,0-.479,1.79v4.166a.578.578,0,0,1-.2.461.7.7,0,0,1-.469.165.738.738,0,0,1-.48-.165.565.565,0,0,1-.2-.461v-8.059a.63.63,0,0,1,.192-.451.648.648,0,0,1,.472-.194.623.623,0,0,1,.469.185.639.639,0,0,1,.177.46v1.071a3.449,3.449,0,0,1,1.44-1.428,4.313,4.313,0,0,1,2.025-.472,4.461,4.461,0,0,1,2.314.617,3.166,3.166,0,0,1,1.429,1.8,3.564,3.564,0,0,1,1.55-1.8,4.646,4.646,0,0,1,2.359-.617,4.712,4.712,0,0,1,2.065.472,3.974,3.974,0,0,1,1.584,1.353,3.61,3.61,0,0,1,.611,2.1v4.941a.625.625,0,0,1-.185.472.691.691,0,0,1-.5.175.691.691,0,0,1-.49-.165.64.64,0,0,1-.175-.482v-4.885a2.741,2.741,0,0,0-.405-1.4" transform="translate(280.578 -154.809)" fill="#464341"/>
      <path id="Path_20" data-name="Path 20" d="M-195.457,180.7a.6.6,0,0,1,.228-.472.783.783,0,0,1,.508-.194.6.6,0,0,1,.573.388l3.465,6.933,3.431-6.952a.6.6,0,0,1,.57-.369.771.771,0,0,1,.5.183.581.581,0,0,1,.222.462.513.513,0,0,1-.037.222l-5.826,11.579a.766.766,0,0,1-.3.352.736.736,0,0,1-.384.11.656.656,0,0,1-.453-.175.564.564,0,0,1-.193-.433,1.1,1.1,0,0,1,.074-.313l1.622-3.3-3.946-7.762a.707.707,0,0,1-.055-.256" transform="translate(269.359 -154.923)" fill="#464341"/>
    </g>
    <path id="Path_21" data-name="Path 21" d="M-381.137,130.1a24.73,24.73,0,0,0-24.729,24.729,24.729,24.729,0,0,0,24.729,24.728,24.728,24.728,0,0,0,24.728-24.728A24.729,24.729,0,0,0-381.137,130.1m-16.085,17.787a.96.96,0,0,1-.317-.722.96.96,0,0,1,.3-.75,1.121,1.121,0,0,1,.781-.271h4.48v-4.539a1.048,1.048,0,0,1,.285-.752,1.047,1.047,0,0,1,.8-.3,1.045,1.045,0,0,1,.766.315,1.015,1.015,0,0,1,.317.737v4.539h4.478a1.05,1.05,0,0,1,.8.3,1.017,1.017,0,0,1,.285.721,1.018,1.018,0,0,1-.285.722,1.047,1.047,0,0,1-.8.3h-4.478v4.51a1.032,1.032,0,0,1-.317.781,1.073,1.073,0,0,1-.766.3,1.075,1.075,0,0,1-.8-.286,1.072,1.072,0,0,1-.285-.8v-4.51h-4.48A1.066,1.066,0,0,1-397.222,147.89Zm30.626,15.19a20.43,20.43,0,0,1-14.541,6.028,20.431,20.431,0,0,1-14.54-6.028,1.027,1.027,0,0,1,0-1.454,1.027,1.027,0,0,1,1.454,0,18.387,18.387,0,0,0,13.086,5.426,18.383,18.383,0,0,0,13.086-5.426,1.028,1.028,0,0,1,1.455,0A1.028,1.028,0,0,1-366.6,163.08Zm1.606-15.19a.936.936,0,0,1-.736.285H-376.1a1.033,1.033,0,0,1-.766-.285.96.96,0,0,1-.285-.706,1.007,1.007,0,0,1,.285-.721,1.006,1.006,0,0,1,.766-.3h10.372a.922.922,0,0,1,.721.3,1.039,1.039,0,0,1,.27.721A1.021,1.021,0,0,1-364.99,147.89Z" transform="translate(0)" fill="#e84048"/>
  </g>
</svg>
