<svg id="Group_120" data-name="Group 120" xmlns="http://www.w3.org/2000/svg" width="41.482" height="28.9" viewBox="0 0 41.482 28.9">
  <path id="Path_88" data-name="Path 88" d="M2094.623,2196.177c.129-.03.274-.06.417-.1l7.844-2.1c.625-.167.87-.455.753-.891-.112-.419-.477-.542-1.108-.374q-3.785,1.01-7.571,2.021a3.879,3.879,0,0,0-.687.227.581.581,0,0,0-.321.712A.65.65,0,0,0,2094.623,2196.177Zm2.509-6.443a1.608,1.608,0,0,0,.177-.029c1.952-.519,3.905-1.033,5.854-1.563a.637.637,0,0,0,.472-.816.667.667,0,0,0-.841-.434c-.079.017-.157.039-.234.06q-2.5.669-4.995,1.339a4.633,4.633,0,0,0-.732.223.589.589,0,0,0-.345.735A.627.627,0,0,0,2097.132,2189.734Zm-2.651.7a.693.693,0,0,0,.738-.643.638.638,0,0,0-.616-.661.688.688,0,0,0-.756.661A.639.639,0,0,0,2094.481,2190.431Zm-1.792,5.775a.668.668,0,0,0-.635-.654.69.69,0,0,0-.733.646.634.634,0,0,0,.645.672A.707.707,0,0,0,2092.688,2196.206Zm-.773-5.563a.618.618,0,0,0-.634-.635.687.687,0,0,0-.731.644.66.66,0,0,0,.663.664A.677.677,0,0,0,2091.916,2190.643Z" transform="translate(-2070.435 -2171.926)" fill="#e84048"/>
  <path id="Path_89" data-name="Path 89" d="M1892.264,2060.726a14.966,14.966,0,0,1,.812-1.958,3.925,3.925,0,0,1,2.293-1.76.511.511,0,0,0,.431-.587c-.012-4.157,0-8.315-.013-12.472a4.2,4.2,0,0,1,1.707-3.575,3.826,3.826,0,0,1,2.046-.792c.229-.018.458-.023.688-.023q12.837,0,25.674-.007a4.243,4.243,0,0,1,3.536,1.623,3.96,3.96,0,0,1,.882,2.509c.008,2.335,0,4.67,0,7.005,0,.027,0,.054,0,.081-.028.478-.28.749-.684.735-.382-.013-.617-.279-.62-.746-.007-1.39,0-2.781,0-4.171v-.571c-.184.1-.319.165-.447.243q-6.224,3.78-12.446,7.564a4.879,4.879,0,0,1-4.487.5,6.8,6.8,0,0,1-1.043-.53q-6.515-3.885-13.025-7.779c-.125-.075-.255-.144-.462-.26v.512q0,8.038,0,16.077a2.4,2.4,0,0,1-.053.56.573.573,0,0,1-.633.454.582.582,0,0,1-.594-.507,2.821,2.821,0,0,1-.031-.483q0-1.8,0-3.6v-.5a3,3,0,0,0-1.826,1.546,3.25,3.25,0,0,0,3.617,4.675c2.107-.513,4.2-1.1,6.291-1.667q11.865-3.2,23.728-6.406c.153-.041.3-.094.482-.151-.206-.779-.4-1.533-.607-2.283a1.04,1.04,0,0,1,.233-1.155,1.131,1.131,0,0,1,1.274-.24c1.342.561,2.684,1.126,4.008,1.729a1.173,1.173,0,0,1,.5,1.831c-.845,1.186-1.729,2.345-2.611,3.506a1.134,1.134,0,0,1-1.226.425,1.037,1.037,0,0,1-.778-.886c-.134-.534-.285-1.063-.443-1.645l-30.847,8.323a2.109,2.109,0,0,0,1.057.948,4,4,0,0,0,1.361.311q13.019.027,26.038.011a2.836,2.836,0,0,0,2.974-2.985c.01-.661,0-1.323,0-1.984.005-.508.258-.8.663-.79.389.01.651.3.637.782a19.865,19.865,0,0,1-.164,3.181,4.012,4.012,0,0,1-3.746,3.1c-.162.009-.324.015-.486.015q-12.857,0-25.714,0a4.207,4.207,0,0,1-3.385-1.426c-.235-.272-.389-.612-.607-.9a.95.95,0,0,0-.429-.361,4.553,4.553,0,0,1-3.447-3.637c-.021-.091-.051-.179-.077-.269Zm20.788-19.856q-6.478,0-12.956,0a2.833,2.833,0,0,0-2.994,2.959.572.572,0,0,0,.323.575q6.951,4.139,13.888,8.3a3.692,3.692,0,0,0,4.151-.016c1.673-1.036,3.363-2.048,5.045-3.069q4.08-2.478,8.157-4.96c.143-.087.327-.257.33-.392a4.694,4.694,0,0,0-.1-1.281,2.786,2.786,0,0,0-2.927-2.117Q1919.51,2040.866,1913.052,2040.87Zm19.335,14.589-3.564-1.529,1.241,4.628Z" transform="translate(-1892.264 -2039.552)" fill="#e84048"/>
  <path id="Path_90" data-name="Path 90" d="M2124.52,2247.33a.651.651,0,0,1-.674-.5.581.581,0,0,1,.321-.712,3.821,3.821,0,0,1,.688-.228q3.785-1.014,7.572-2.021c.631-.168,1-.045,1.108.373.117.436-.128.724-.754.891l-7.844,2.1C2124.793,2247.269,2124.649,2247.3,2124.52,2247.33Z" transform="translate(-2100.331 -2223.079)" fill="#e84048"/>
  <path id="Path_91" data-name="Path 91" d="M2149.505,2189.734a.627.627,0,0,1-.643-.484.589.589,0,0,1,.344-.735,4.639,4.639,0,0,1,.732-.223q2.5-.672,4.995-1.339c.078-.021.156-.043.234-.06a.666.666,0,0,1,.84.434.637.637,0,0,1-.471.816c-1.949.53-3.9,1.044-5.854,1.563A1.59,1.59,0,0,1,2149.505,2189.734Z" transform="translate(-2122.809 -2171.926)" fill="#e84048"/>
  <path id="Path_92" data-name="Path 92" d="M2123.676,2210.4a.639.639,0,0,1-.635-.644.689.689,0,0,1,.756-.661.638.638,0,0,1,.616.662A.692.692,0,0,1,2123.676,2210.4Z" transform="translate(-2099.63 -2191.891)" fill="#e84048"/>
  <path id="Path_93" data-name="Path 93" d="M2099.513,2273.091a.707.707,0,0,1-.723.664.633.633,0,0,1-.645-.672.689.689,0,0,1,.733-.647A.67.67,0,0,1,2099.513,2273.091Z" transform="translate(-2077.259 -2248.811)" fill="#e84048"/>
  <path id="Path_94" data-name="Path 94" d="M2091.916,2218.433a.678.678,0,0,1-.7.674.66.66,0,0,1-.663-.665.686.686,0,0,1,.731-.643A.617.617,0,0,1,2091.916,2218.433Z" transform="translate(-2070.435 -2199.716)" fill="#e84048"/>
</svg>
