<svg id="Group_121" data-name="Group 121" xmlns="http://www.w3.org/2000/svg" width="22.284" height="39.56" viewBox="0 0 22.284 39.56">
  <path id="Path_95" data-name="Path 95" d="M2717.478,2037.8a9.912,9.912,0,0,1-1.618-.749,2.988,2.988,0,0,1-1.236-2.382c-.011-.167-.01-.334-.01-.5q0-11.879,0-23.757a3.279,3.279,0,0,1,.01-.425.539.539,0,0,1,.537-.511.534.534,0,0,1,.584.456,2.37,2.37,0,0,1,.028.5c0,7.894.024,15.787-.018,23.68a2.351,2.351,0,0,0,2.572,2.551c5.035-.051,10.071-.018,15.107-.02a2.117,2.117,0,0,0,2.224-1.646,2.786,2.786,0,0,0,.06-.65q0-16.321,0-32.643a2.135,2.135,0,0,0-2.321-2.3q-7.651,0-15.3,0a2.139,2.139,0,0,0-2.326,2.334c0,1.906,0,3.812,0,5.717,0,.153.025.354-.059.447-.145.164-.372.369-.552.359s-.374-.243-.517-.416c-.066-.08-.029-.249-.029-.377q0-2.859,0-5.717a3.3,3.3,0,0,1,3.507-3.507q7.63,0,15.261,0a3.293,3.293,0,0,1,3.5,3.477q0,16.3.009,32.6a3.35,3.35,0,0,1-2.812,3.434c-.022,0-.041.029-.061.044Z" transform="translate(-2714.604 -1998.236)" fill="#e84048"/>
  <path id="Path_96" data-name="Path 96" d="M2756.443,2055.272h-14.994v.446q0,9.213,0,18.426a2.083,2.083,0,0,1-.017.423.571.571,0,0,1-1.132-.023,2.163,2.163,0,0,1-.01-.347q0-9.618,0-19.237c0-.7.164-.856.87-.856h15.57c.708,0,.872.16.872.855q0,5.737,0,11.473a2.078,2.078,0,0,1-.011.347.57.57,0,0,1-1.125.03,1.961,1.961,0,0,1-.021-.423q0-5.311,0-10.623Z" transform="translate(-2737.803 -2048.698)" fill="#e84048"/>
  <path id="Path_97" data-name="Path 97" d="M2771.993,2142.312a3.854,3.854,0,0,1,.3-.416c1.372-1.377,2.74-2.757,4.123-4.122a1.865,1.865,0,0,1,3.228.787,1.613,1.613,0,0,1-.358,1.59c-2.04,2.072-4.089,4.136-6.171,6.165a1.684,1.684,0,0,1-2.3.007c-1.117-1.045-2.2-2.128-3.246-3.248a1.792,1.792,0,0,1,.129-2.455,1.846,1.846,0,0,1,2.49-.131c.316.261.6.563.89.855S2771.626,2141.924,2771.993,2142.312Zm-.029,3.341a3.889,3.889,0,0,0,.621-.409q2.821-2.8,5.625-5.617c.392-.393.433-.806.128-1.117s-.724-.277-1.119.1c-.065.063-.127.127-.191.191l-4.422,4.418c-.542.542-.752.539-1.3-.012s-1.124-1.132-1.694-1.69a.716.716,0,1,0-1.009,1q1.383,1.4,2.787,2.779A3.3,3.3,0,0,0,2771.964,2145.653Z" transform="translate(-2762.059 -2123.7)" fill="#e84048"/>
  <path id="Path_98" data-name="Path 98" d="M2741.47,2214.1h14.973v-10.6c0-.1,0-.206,0-.309.019-.4.231-.642.566-.649.355-.008.588.238.589.659.005,1.6,0,3.192,0,4.789q0,3.206,0,6.412c0,.7-.168.878-.855.878h-15.606c-.673,0-.85-.179-.851-.844,0-1.146,0-2.292,0-3.438,0-.5.351-.792.759-.646a.624.624,0,0,1,.4.678q0,1.408,0,2.819C2741.45,2213.926,2741.462,2214,2741.47,2214.1Z" transform="translate(-2737.803 -2182.777)" fill="#e84048"/>
  <path id="Path_99" data-name="Path 99" d="M2811.07,2343.5a2.244,2.244,0,1,1-2.255-2.253A2.261,2.261,0,0,1,2811.07,2343.5Zm-1.159-.011a1.085,1.085,0,0,0-2.169-.011,1.085,1.085,0,1,0,2.169.011Z" transform="translate(-2797.684 -2308.063)" fill="#e84048"/>
  <path id="Path_100" data-name="Path 100" d="M2825.019,2026.7c.451,0,.9-.008,1.351,0,.4.009.652.225.667.55a.6.6,0,0,1-.661.6q-1.37.021-2.741,0a.576.576,0,0,1-.642-.574c0-.349.242-.565.675-.574C2824.118,2026.7,2824.569,2026.7,2825.019,2026.7Z" transform="translate(-2812.507 -2023.947)" fill="#e84048"/>
  <path id="Path_101" data-name="Path 101" d="M2795.873,2027.919a5.714,5.714,0,0,1-.6-.052.555.555,0,0,1,.045-1.095,10.136,10.136,0,0,1,1.152-.008.512.512,0,0,1,.528.546.522.522,0,0,1-.5.574C2796.309,2027.91,2796.115,2027.907,2795.873,2027.919Z" transform="translate(-2787.069 -2023.993)" fill="#e84048"/>
  <path id="Path_102" data-name="Path 102" d="M2820.733,2364.32a1.085,1.085,0,1,1-2.17-.011" transform="translate(-2808.505 -2328.891)" fill="#e84048"/>
  <path id="Path_103" data-name="Path 103" d="M2829.83,2353.278" transform="translate(-2818.682 -2318.927)" fill="#e84048"/>
</svg>
