<svg xmlns="http://www.w3.org/2000/svg" width="35.382" height="35.382" viewBox="0 0 35.382 35.382">
  <g id="Group_135" data-name="Group 135" transform="translate(-361.318 -423.664)">
    <circle id="Ellipse_23" data-name="Ellipse 23" cx="17.691" cy="17.691" r="17.691" transform="translate(361.318 423.664)" fill="red"/>
    <path id="Path_110" data-name="Path 110" d="M388.48,438.827a4.247,4.247,0,0,0-4.248-4.248H373.37a4.248,4.248,0,0,0-4.248,4.248v5.055a4.248,4.248,0,0,0,4.248,4.248h10.862a4.248,4.248,0,0,0,4.248-4.248Zm-6.388,2.907-4.871,2.409c-.191.1-.84-.035-.84-.252v-4.947c0-.219.654-.358.845-.249l4.663,2.537C382.085,441.344,382.29,441.626,382.092,441.734Z" fill="#fff"/>
  </g>
</svg>
